<?xml version="1.0" standalone="no"?> <!DOCTYPE svg PUBLIC "-//W3C//DTD SVG 20010904//EN" "http://www.w3.org/TR/2001/REC-SVG-20010904/DTD/svg10.dtd"> <svg version="1.0" xmlns="http://www.w3.org/2000/svg" width="600.000000pt" height="582.000000pt" viewBox="0 0 600.000000 582.000000" preserveAspectRatio="xMidYMid meet"> <g transform="translate(0.000000,582.000000) scale(0.050000,-0.050000)" fill="#2a2a2e" stroke="none"> <path d="M5847 11469 c-9 -23 -18 -25 -39 -7 -23 18 -28 14 -30 -25 0 -26 -6 -36 -11 -22 -21 51 -199 30 -307 -37 -91 -56 -106 -59 -170 -38 -72 24 -150 12 -150 -23 0 -10 8 -15 17 -9 9 6 16 -3 16 -19 0 -20 -7 -23 -25 -8 -17 15 -47 9 -101 -20 -42 -23 -91 -41 -110 -41 -107 0 -437 -203 -437 -269 0 -12 -32 -43 -71 -69 -53 -37 -64 -53 -45 -67 18 -13 11 -15 -21 -8 -34 7 -43 3 -35 -18 6 -16 4 -26 -4 -24 -17 6 -62 -39 -194 -196 -155 -183 -155 -184 -172 -289 -8 -54 -34 -123 -57 -154 -46 -63 -97 -225 -118 -376 -8 -55 -23 -113 -33 -130 -23 -38 -14 -443 11 -469 28 -28 22 -116 -12 -160 -40 -53 -36 -129 11 -206 35 -58 36 -65 6 -65 -174 0 -265 -266 -156 -457 63 -109 62 -125 -3 -190 -91 -92 -202 -55 -146 48 113 213 4 453 -226 496 -48 9 -122 40 -165 69 -64 43 -91 50 -162 41 -67 -10 -102 -2 -161 32 -63 37 -92 42 -186 31 -95 -11 -120 -7 -165 29 -67 52 -153 52 -254 0 -62 -33 -99 -39 -169 -28 -58 8 -104 4 -136 -13 -26 -15 -51 -27 -57 -28 -5 -1 -30 -13 -54 -26 -28 -15 -75 -20 -125 -12 -86 14 -257 -70 -231 -113 7 -10 -2 -13 -19 -7 -17 7 -31 2 -31 -11 0 -13 -10 -17 -21 -10 -42 25 -121 -13 -230 -111 -60 -55 -120 -100 -133 -100 -13 0 -80 -59 -150 -130 -69 -72 -126 -124 -126 -117 0 43 -113 -101 -160 -203 -29 -66 -78 -149 -108 -185 -30 -35 -49 -73 -42 -85 7 -11 -1 -25 -17 -32 -16 -6 -35 -42 -42 -81 -7 -38 -28 -85 -47 -104 -81 -84 -137 -243 -85 -243 28 0 8 -73 -41 -154 -42 -67 -43 -80 -21 -187 17 -84 18 -130 2 -172 -26 -68 -13 -152 41 -257 28 -55 40 -67 42 -39 1 24 5 29 12 13 6 -15 -9 -45 -32 -66 -49 -46 -53 -94 -14 -187 16 -37 23 -73 16 -80 -7 -7 4 -7 25 1 21 9 33 7 26 -4 -28 -46 26 -234 94 -329 40 -56 71 -123 71 -154 0 -53 86 -205 116 -205 8 0 40 -41 71 -90 31 -50 66 -90 77 -90 11 0 15 -13 9 -28 -8 -22 2 -27 41 -19 48 8 50 6 24 -25 -26 -32 -24 -33 17 -11 37 20 42 19 32 -7 -6 -16 -1 -30 11 -30 12 0 57 -31 99 -70 42 -38 84 -63 93 -55 9 8 10 4 3 -9 -9 -16 16 -40 71 -68 47 -24 129 -82 182 -130 75 -67 117 -88 190 -98 52 -6 142 -34 200 -61 174 -81 295 -38 412 148 60 95 109 113 265 97 178 -18 246 -135 96 -163 -47 -9 -77 -28 -89 -57 -10 -24 -18 -32 -19 -18 0 15 -10 21 -21 14 -12 -7 -15 -23 -7 -34 8 -13 4 -16 -10 -8 -12 8 -67 -15 -122 -51 -67 -44 -92 -71 -75 -81 17 -11 14 -15 -9 -16 -19 0 -39 11 -45 25 -6 14 -6 -2 -1 -35 5 -33 4 -49 -3 -35 -6 14 -20 25 -31 25 -11 0 -13 -10 -6 -22 8 -12 2 -31 -13 -42 -21 -15 -19 -17 9 -8 27 9 34 5 26 -17 -14 -37 75 -110 153 -125 113 -23 35 -172 -136 -260 -61 -32 -196 -145 -205 -172 -16 -49 -107 -211 -141 -250 -25 -28 -36 -61 -29 -88 8 -29 4 -38 -12 -28 -13 8 -23 6 -23 -3 0 -10 -33 -56 -74 -104 -80 -94 -128 -230 -140 -401 -4 -60 -14 -123 -20 -140 -7 -16 -11 -36 -9 -44 1 -8 -11 -9 -27 -3 -33 12 -20 -51 14 -75 10 -6 4 -23 -14 -38 -26 -22 -29 -21 -18 7 7 18 2 33 -10 33 -34 0 -26 -60 14 -97 20 -18 26 -26 13 -18 -15 10 -22 -8 -22 -54 0 -41 8 -64 19 -57 11 7 14 3 7 -9 -7 -12 -6 -25 2 -30 8 -5 3 -5 -12 -1 -17 4 -23 -5 -16 -22 6 -16 -2 -34 -18 -40 -39 -14 -37 -121 2 -160 18 -18 25 -43 16 -57 -11 -20 -8 -20 17 1 28 23 29 13 7 -105 -23 -120 -22 -133 12 -164 20 -18 37 -45 37 -59 0 -14 29 -48 64 -75 56 -44 61 -56 42 -97 -27 -57 -30 -136 -5 -136 11 0 19 -9 19 -20 0 -36 114 -179 130 -164 9 8 11 -7 4 -33 -20 -83 119 -302 171 -270 12 7 15 4 8 -8 -7 -11 30 -55 82 -97 52 -42 82 -60 65 -39 -28 35 -28 36 14 10 24 -15 40 -33 36 -39 -4 -7 14 -38 41 -69 27 -32 49 -65 49 -73 0 -9 15 -11 33 -4 21 8 29 5 20 -8 -7 -12 16 -50 51 -84 46 -45 68 -55 80 -37 11 18 15 17 16 -7 0 -53 138 -102 325 -117 8 0 15 -14 15 -29 0 -65 160 -127 345 -135 58 -3 95 -14 95 -28 0 -61 121 -78 213 -30 86 46 88 46 131 9 29 -26 38 -28 28 -8 -9 18 -3 16 14 -5 42 -52 160 -26 214 48 6 7 55 9 110 3 189 -19 221 -15 312 46 98 67 158 94 158 72 0 -8 23 -15 50 -17 28 -1 50 5 50 15 0 10 17 18 37 18 33 0 59 17 157 100 13 11 33 20 44 20 11 0 58 41 104 90 52 56 113 98 159 110 110 30 301 247 267 304 -8 13 -5 17 7 9 12 -7 39 18 62 56 28 48 33 72 17 79 -13 6 2 6 33 2 32 -5 53 -3 46 3 -6 7 10 40 36 74 49 64 104 203 99 248 -2 14 -4 39 -5 56 -2 16 -23 38 -48 48 -25 10 -32 19 -17 20 48 2 -55 97 -121 112 -63 14 -75 67 -35 156 21 45 36 49 220 62 257 18 249 28 267 -307 25 -454 175 -680 342 -513 27 27 50 43 51 35 8 -79 55 167 56 297 2 150 19 299 53 454 11 48 329 73 329 25 0 -11 13 -20 29 -20 109 0 95 -208 -21 -321 -50 -49 -105 -115 -121 -146 -32 -62 -21 -164 16 -141 14 8 17 -1 9 -26 -10 -30 1 -46 43 -65 30 -15 44 -30 31 -35 -27 -10 53 -100 81 -90 10 3 13 -8 6 -24 -12 -33 286 -360 331 -364 68 -5 77 -9 66 -28 -7 -11 11 -30 40 -43 28 -13 48 -34 43 -47 -5 -13 8 -34 29 -47 23 -14 38 -15 38 -3 0 11 -9 20 -20 20 -11 0 -20 9 -20 19 0 11 13 15 30 8 17 -6 30 -27 30 -47 0 -41 121 -105 203 -108 29 -1 49 -9 44 -17 -5 -8 -3 -26 5 -39 10 -16 20 -11 30 15 15 38 15 38 17 -1 1 -33 5 -35 21 -10 17 26 19 26 20 -3 0 -35 68 -67 187 -87 42 -7 107 -27 143 -44 50 -24 79 -27 125 -11 40 14 91 14 163 0 75 -15 126 -14 182 3 79 23 180 12 180 -20 0 -21 58 -14 98 11 19 12 24 10 14 -6 -8 -13 -5 -23 6 -23 11 0 29 16 40 35 12 19 21 28 21 19 1 -8 20 -5 44 8 32 17 61 17 117 -2 75 -25 343 70 305 108 -8 8 2 8 21 1 19 -8 34 -4 34 9 0 12 10 22 21 22 12 0 16 -9 9 -20 -26 -43 33 -17 75 32 25 29 95 76 155 105 127 60 435 345 522 483 42 67 58 80 59 50 2 -29 9 -22 26 24 26 70 62 118 43 55 -7 -21 11 6 40 61 29 55 54 111 55 125 1 15 16 21 37 14 27 -8 34 0 29 40 -3 27 1 46 10 41 26 -16 54 37 69 130 8 50 27 118 43 152 16 35 31 107 33 160 2 54 9 103 14 108 75 72 99 483 36 606 -12 23 -10 60 4 103 19 60 15 84 -39 202 -67 147 -78 199 -31 138 66 -85 3 102 -91 271 -26 46 -51 68 -74 63 -30 -5 -29 -1 5 27 22 18 29 27 15 20 -14 -7 -25 0 -25 17 0 17 -21 55 -48 86 -26 32 -67 99 -91 151 -46 97 -288 343 -361 366 -22 7 -40 25 -40 39 0 29 -60 50 -140 51 -30 0 -91 -33 -148 -80 -165 -137 -288 -48 -193 138 50 98 63 102 221 69 168 -35 340 -31 340 7 0 16 8 23 18 17 36 -22 84 13 71 51 -14 46 19 114 39 81 8 -13 5 -23 -7 -23 -11 0 -21 -13 -21 -30 0 -16 9 -30 20 -30 11 0 20 14 20 31 0 17 9 26 20 19 31 -19 -1 55 -46 105 -46 50 -7 67 46 20 24 -21 24 -20 2 10 -15 19 -18 35 -7 35 11 0 66 31 121 69 91 63 110 68 199 58 68 -8 106 -4 126 16 16 15 58 28 93 30 55 2 231 103 268 154 7 9 16 14 20 10 11 -8 234 121 248 143 6 10 27 13 46 6 27 -9 26 -5 -6 21 -38 31 -38 32 -2 20 31 -11 36 -7 26 19 -7 20 -3 32 10 29 13 -3 33 15 46 40 13 25 80 104 149 175 78 82 121 142 114 160 -6 16 -5 27 4 25 25 -8 147 142 134 164 -7 11 -1 16 13 10 33 -12 110 148 128 265 7 47 34 114 60 149 37 50 48 91 49 176 0 61 13 134 29 161 39 68 37 121 -8 224 -34 81 -35 93 -6 147 45 84 36 307 -16 409 -22 43 -40 110 -40 148 0 38 -9 75 -21 83 -11 7 -15 32 -9 56 10 34 8 37 -8 13 -12 -16 -22 -25 -23 -20 -29 159 -39 181 -119 268 -43 47 -91 120 -105 164 -18 52 -37 77 -60 75 -19 -1 -30 5 -25 14 6 8 3 19 -5 24 -8 5 -1 5 15 0 17 -4 -1 27 -40 69 -188 206 -248 263 -264 254 -9 -6 -15 -3 -11 6 3 9 -33 52 -80 94 -58 53 -82 65 -74 40 8 -26 3 -24 -16 8 -38 63 -149 129 -164 98 -6 -13 -8 -4 -3 21 5 25 1 40 -8 35 -9 -6 -21 1 -27 15 -7 18 -10 18 -11 -3 -1 -18 -20 -9 -51 25 -37 39 -69 53 -125 53 -48 0 -103 18 -149 49 -40 27 -78 44 -85 37 -6 -7 -12 -2 -12 11 0 12 -27 23 -60 23 -33 0 -60 -9 -60 -20 0 -11 10 -20 23 -20 13 0 18 -6 11 -13 -7 -7 -26 -2 -42 11 -19 16 -33 17 -41 3 -8 -12 -22 -21 -33 -21 -11 0 -14 11 -6 23 10 16 4 20 -19 11 -18 -7 -33 -4 -33 7 0 74 -341 132 -447 75 -25 -13 -66 -12 -125 3 -72 18 -100 16 -147 -9 -33 -16 -84 -30 -116 -30 -65 0 -152 -54 -139 -87 5 -13 -10 -25 -34 -27 -137 -12 -312 -67 -312 -98 0 -6 11 -4 25 4 15 8 18 7 8 -4 -9 -10 -22 -19 -30 -20 -7 -1 -46 -17 -87 -35 -41 -18 -87 -33 -103 -33 -15 0 -39 -13 -53 -30 -14 -16 -17 -30 -8 -30 10 0 -16 -23 -57 -51 -91 -62 -106 -184 -34 -276 84 -106 38 -125 -78 -33 -107 84 -107 85 -91 167 16 86 25 357 11 343 -37 -38 -86 99 -62 173 20 62 21 99 4 163 -14 52 -15 95 -3 117 10 19 18 87 18 151 1 64 1 143 2 176 3 171 -71 494 -106 460 -6 -6 -6 12 -1 40 7 36 -12 87 -63 170 -52 83 -70 132 -62 165 17 65 -19 148 -106 246 -41 46 -110 142 -153 215 -44 72 -87 127 -95 121 -14 -8 -17 0 -16 43 1 22 -134 126 -216 168 -47 24 -127 75 -177 113 -49 38 -103 69 -119 69 -17 0 -52 22 -79 50 -28 27 -54 49 -59 50 -6 0 -8 5 -5 12 12 27 -216 88 -266 71 -38 -13 -69 -8 -120 19 -38 20 -102 37 -142 37 -41 1 -101 17 -134 36 -50 28 -72 30 -119 13 -38 -15 -71 -16 -92 -4 -23 13 -45 11 -67 -7 -28 -23 -31 -22 -19 8 7 19 4 35 -7 35 -11 0 -26 -14 -32 -31z m53 -169 c0 -11 14 -20 31 -20 17 0 26 -9 19 -20 -6 -10 -2 -38 11 -61 18 -35 15 -51 -19 -87 -23 -25 -42 -56 -42 -70 0 -14 -22 2 -50 34 -53 63 -61 161 -15 179 14 5 25 22 25 37 0 15 9 28 20 28 11 0 20 -9 20 -20z m299 -83 c1 -19 -8 -37 -19 -40 -13 -5 -12 -34 2 -84 11 -42 16 -81 11 -87 -22 -21 -52 18 -64 85 -8 38 -21 69 -29 69 -9 0 -11 20 -5 45 6 25 5 39 -3 32 -22 -19 -27 -124 -8 -150 27 -35 -15 -52 -44 -17 -50 60 20 257 79 221 12 -8 21 -2 21 12 0 37 59 -48 59 -86z m-466 -37 c27 -118 17 -139 -66 -140 -23 0 -48 -13 -53 -28 -13 -33 -159 -36 -147 -3 4 12 26 20 49 20 47 -2 74 63 32 79 -15 6 -22 24 -16 41 7 17 2 31 -10 31 -12 0 -22 -17 -22 -39 0 -55 -35 -69 -50 -21 -22 71 72 164 124 123 35 -29 69 -86 74 -126 1 -8 10 -21 20 -30 10 -10 12 8 4 43 -39 166 -39 174 0 167 27 -5 44 -38 61 -117z m647 70 c0 -16 7 -30 15 -30 55 0 20 -139 -49 -192 -41 -31 -68 -43 -62 -26 6 16 0 46 -15 65 -31 44 -1 153 43 153 15 0 28 14 28 30 0 17 9 30 20 30 11 0 20 -13 20 -30z m-1040 -150 c60 -9 65 -14 34 -32 -33 -19 -31 -23 15 -48 57 -30 67 -60 21 -60 -16 0 -30 8 -30 18 0 10 -16 24 -35 31 -28 11 -30 8 -10 -12 37 -37 31 -47 -25 -47 -36 0 -48 9 -40 30 6 17 -3 13 -20 -9 -16 -21 -30 -50 -30 -65 0 -14 -13 -26 -30 -26 -45 0 -37 80 13 134 l44 46 -64 0 c-82 0 -82 37 2 119 l65 64 10 -67 c9 -58 19 -67 80 -76z m1378 61 c117 -60 130 -115 47 -197 -30 -30 -55 -65 -55 -79 0 -28 -6 -29 -91 -12 -33 7 -57 22 -53 35 4 12 -7 33 -24 46 -28 21 -25 25 21 25 63 1 120 106 80 146 -13 13 -24 19 -25 14 -20 -122 -33 -142 -83 -135 -25 3 -43 13 -40 21 3 8 5 38 5 66 0 41 7 49 38 40 26 -9 40 0 48 28 13 51 36 51 132 2z m-1738 -121 c0 -30 13 -40 52 -40 46 0 51 -6 40 -50 -7 -29 -4 -50 8 -50 11 0 20 -14 20 -32 0 -21 -11 -28 -32 -20 -17 7 -38 12 -47 12 -9 0 -21 18 -27 40 -6 22 -20 40 -33 40 -14 0 -11 -22 10 -62 18 -34 29 -65 24 -69 -9 -10 -135 207 -135 233 0 31 37 20 58 -17 19 -31 21 -30 21 10 1 25 10 45 21 45 11 0 20 -18 20 -40z m2087 -54 c7 -7 -6 -34 -30 -59 -41 -44 -41 -49 -10 -83 43 -48 42 -71 -3 -59 -30 8 -35 -1 -28 -48 5 -34 -1 -57 -14 -57 -12 0 -22 9 -22 20 0 11 -14 20 -31 20 -17 0 -26 9 -19 20 7 11 -2 26 -20 33 -27 10 -28 16 -7 31 18 13 1 15 -48 7 -59 -10 -75 -6 -75 17 0 40 34 58 105 56 43 -1 55 6 47 27 -7 16 -17 43 -24 59 -13 31 149 46 179 16z m-2190 -121 c15 -47 39 -85 55 -85 40 0 35 -39 -7 -54 -19 -7 -41 -23 -49 -35 -32 -48 -114 -26 -104 28 11 60 -54 155 -90 132 -17 -10 -9 -29 27 -62 58 -54 63 -74 23 -108 -28 -22 -37 -20 -130 34 -4 2 5 19 20 38 22 26 22 35 3 42 -81 27 65 169 165 160 51 -4 64 -17 87 -90z m1453 -97 c197 -47 519 -218 605 -320 40 -48 86 -88 100 -88 15 0 21 -10 14 -22 -7 -12 14 -50 47 -85 34 -35 85 -111 114 -169 29 -58 70 -116 91 -130 22 -13 39 -35 39 -50 0 -14 13 -45 29 -70 88 -135 143 -448 114 -654 -18 -128 -18 -129 -20 -34 -5 191 -53 165 -58 -31 -4 -188 -56 -420 -125 -555 l-39 -77 74 -46 c40 -26 128 -77 194 -114 67 -36 155 -88 196 -115 92 -59 85 -60 115 12 14 33 34 60 45 60 10 0 14 13 8 29 -6 15 -4 31 4 35 8 3 45 49 82 101 37 52 75 95 84 95 10 0 17 13 17 29 0 35 52 21 67 -18 7 -18 -2 -23 -28 -16 -30 7 -39 -1 -39 -33 0 -24 -13 -42 -30 -42 -16 0 -31 -11 -33 -25 -1 -14 -4 -47 -7 -74 -3 -27 -15 -53 -27 -57 -13 -4 -23 -18 -23 -30 0 -13 -29 -47 -64 -78 -35 -30 -60 -58 -55 -62 5 -4 63 -48 129 -98 66 -50 179 -146 250 -213 144 -135 177 -146 220 -74 49 79 398 331 459 331 18 0 43 10 56 23 114 114 935 195 1028 102 14 -14 46 -25 72 -25 99 0 494 -213 577 -311 43 -51 112 -126 153 -167 41 -42 75 -86 75 -99 0 -13 8 -23 17 -23 20 0 123 -185 123 -221 0 -14 12 -40 28 -57 150 -172 204 -760 101 -1109 -80 -273 -490 -879 -525 -776 -5 15 -17 15 -43 -1 -21 -13 -33 -34 -27 -48 5 -14 -9 -35 -31 -46 -50 -27 -69 -28 -53 -2 7 11 2 20 -11 20 -13 0 -19 -12 -13 -27 43 -111 -540 -280 -911 -266 -134 5 -195 1 -197 -15 -1 -13 -5 -12 -11 3 -19 47 -47 25 -47 -37 0 -76 -80 -358 -102 -358 -8 0 -14 -19 -12 -43 3 -49 68 -81 281 -140 75 -21 173 -58 218 -83 44 -24 102 -56 130 -71 75 -41 25 -75 -52 -35 -33 18 -106 42 -162 54 -56 12 -101 31 -101 42 0 13 -12 11 -30 -4 -21 -17 -30 -18 -30 -2 0 12 -24 22 -54 22 -30 0 -93 15 -141 33 -47 18 -89 29 -92 25 -3 -4 -25 -66 -48 -138 -55 -167 -103 -295 -104 -274 -1 9 -11 10 -23 3 -14 -9 -15 -20 -2 -33 12 -12 10 -51 -7 -107 -29 -96 -13 -119 95 -140 23 -4 57 -22 75 -38 19 -17 44 -31 55 -31 12 0 27 -22 34 -50 7 -27 26 -50 43 -50 17 0 54 -23 82 -51 28 -28 77 -56 110 -63 38 -7 51 -17 36 -27 -18 -11 -19 -22 -2 -42 12 -15 46 -56 74 -92 29 -36 68 -65 86 -65 28 -1 29 -3 3 -19 -25 -16 -21 -28 25 -76 30 -31 60 -85 67 -121 7 -35 21 -64 30 -64 25 0 94 -145 84 -175 -5 -14 1 -25 13 -25 16 0 16 -11 0 -42 -17 -32 -17 -64 2 -130 40 -146 28 -613 -20 -738 -58 -149 -134 -290 -219 -403 -51 -68 -105 -143 -121 -165 -17 -23 -38 -42 -49 -42 -21 0 -152 -137 -152 -159 0 -8 -23 -25 -50 -37 -28 -13 -48 -33 -45 -45 3 -12 -28 -33 -67 -47 -40 -14 -103 -44 -140 -66 -38 -22 -96 -46 -130 -52 -34 -7 -115 -37 -180 -68 -89 -42 -145 -55 -228 -53 -336 8 -740 84 -740 139 0 27 -63 54 -130 56 -56 3 -184 93 -209 147 -13 29 -38 45 -69 45 -27 0 -55 9 -62 20 -7 11 -2 20 11 20 18 0 17 8 -2 31 -14 17 -38 26 -54 20 -18 -7 -33 4 -39 29 -6 22 -22 40 -37 40 -14 0 -36 32 -49 71 -16 48 -33 68 -52 61 -16 -6 -28 2 -28 18 0 17 -18 41 -40 55 -22 13 -40 39 -40 56 0 18 -6 38 -13 45 -7 8 -15 64 -18 126 -3 63 -14 119 -24 126 -32 21 -67 100 -82 188 l-14 84 -382 3 -383 3 -14 -405 c-8 -223 -9 -424 -1 -448 18 -56 -4 -123 -40 -123 -20 0 -29 24 -31 75 0 41 -5 183 -9 315 -4 132 1 271 11 309 13 48 12 73 -3 83 -14 9 -19 48 -13 103 l11 90 -373 4 c-204 2 -394 5 -420 7 -44 4 -50 -8 -76 -136 -16 -77 -46 -179 -67 -228 -22 -48 -39 -96 -39 -106 0 -144 -568 -716 -737 -742 -22 -3 -52 -17 -68 -30 -174 -145 -780 -186 -1125 -77 -99 32 -184 63 -190 70 -5 7 -70 43 -143 79 -144 73 -236 153 -310 269 -26 41 -56 75 -67 75 -47 0 -220 283 -220 361 0 21 -8 39 -18 39 -10 0 -42 62 -71 138 -199 521 -67 1157 331 1588 101 110 153 152 183 149 29 -4 46 8 51 35 11 51 43 72 94 60 22 -5 28 -4 14 2 -29 14 4 68 42 68 11 0 35 12 52 27 18 16 79 43 137 62 132 43 134 7 -21 476 l-64 196 -60 -12 c-100 -21 -339 -94 -360 -110 -11 -8 -56 -22 -100 -30 -44 -8 -89 -21 -101 -30 -26 -22 -149 -18 -149 4 0 9 18 17 40 17 22 0 40 9 40 20 0 11 16 18 35 17 77 -7 125 4 120 28 -3 13 18 27 45 31 28 5 61 17 74 27 13 11 54 23 90 27 80 8 283 80 290 103 4 10 -22 98 -56 197 -34 99 -66 205 -72 236 -10 53 -16 56 -83 46 -191 -30 -458 -23 -497 13 -25 22 -68 34 -117 32 -84 -3 -188 31 -268 88 -28 19 -71 35 -96 35 -25 0 -51 14 -58 30 -6 17 -28 30 -49 30 -24 0 -38 14 -38 38 0 21 -29 57 -65 80 -36 23 -91 59 -124 81 -32 21 -66 34 -76 28 -10 -6 -16 1 -13 16 13 81 -74 177 -120 131 -16 -16 -22 -16 -22 2 0 13 9 24 20 24 42 0 18 40 -25 42 -34 2 -36 5 -10 12 48 12 45 20 -35 109 -39 42 -70 91 -70 108 0 18 -25 64 -55 104 -45 59 -55 93 -57 193 -1 67 -12 171 -25 231 -18 82 -18 151 -1 276 12 92 18 196 13 231 -5 35 -2 77 7 94 9 16 44 92 78 167 53 121 149 278 210 344 11 13 38 46 60 76 22 29 47 53 56 53 20 0 154 139 154 160 0 7 23 24 52 37 33 15 48 35 41 53 -8 19 1 30 23 30 19 1 96 32 171 70 76 39 151 70 167 70 16 0 80 25 142 55 115 55 386 73 574 37 33 -7 119 -22 190 -34 148 -26 198 -48 237 -103 20 -27 43 -36 79 -29 35 7 72 -6 115 -38 34 -26 71 -48 81 -48 10 0 30 -27 45 -61 16 -35 41 -59 60 -58 59 6 83 -1 83 -22 0 -12 -10 -15 -21 -8 -12 7 -10 -6 4 -29 18 -28 39 -38 65 -30 29 10 35 5 26 -19 -25 -66 23 -46 191 78 95 71 179 129 186 129 37 0 143 128 134 162 -5 21 -17 38 -25 38 -44 0 -259 407 -231 436 16 16 51 -19 81 -83 17 -36 62 -99 101 -140 38 -40 69 -82 69 -92 0 -11 18 -29 40 -41 22 -12 40 -34 40 -50 0 -47 45 -58 74 -18 15 21 43 38 62 38 18 0 51 29 74 64 22 34 59 68 82 74 23 6 80 45 127 87 l84 75 -53 160 c-30 88 -63 171 -75 185 -11 14 -24 46 -28 70 -4 25 -17 104 -28 175 -37 222 24 662 67 487 5 -20 7 -12 5 18 -2 30 2 55 9 55 7 0 29 52 48 115 134 429 476 763 992 965 195 77 610 90 870 28z m1004 -12 c84 -81 73 -216 -17 -216 -27 0 -20 44 14 81 26 28 26 37 2 57 -23 18 -39 11 -81 -39 -53 -64 -54 -106 -1 -86 16 6 29 1 29 -11 0 -12 -10 -22 -21 -22 -12 0 -16 -8 -10 -19 28 -44 -39 -44 -74 1 -22 26 -45 44 -52 38 -19 -14 -16 234 2 252 9 8 26 5 38 -7 17 -17 30 -15 51 6 39 40 45 38 120 -35z m-2802 -127 c62 41 75 39 62 -9 -8 -33 0 -40 48 -40 32 0 58 -9 58 -21 0 -12 -28 -17 -65 -13 -36 5 -49 5 -30 0 37 -9 49 -46 15 -46 -42 0 -95 -65 -85 -104 8 -31 2 -38 -27 -32 -31 6 -37 23 -34 93 3 69 -2 84 -25 75 -16 -7 -42 -17 -59 -24 -37 -15 -41 61 -9 146 l22 56 41 -56 c38 -53 43 -54 88 -25z m2973 -83 c-14 -5 -25 -19 -25 -30 0 -11 14 -15 30 -9 17 7 30 3 30 -8 0 -11 -14 -26 -31 -32 -23 -9 -28 -27 -19 -62 11 -45 7 -49 -41 -40 -33 6 -56 0 -63 -17 -18 -49 -46 -30 -46 32 0 47 9 60 40 60 23 0 40 13 40 31 0 26 -11 24 -61 -12 -106 -76 -84 -29 26 55 69 53 112 73 125 61 13 -13 12 -23 -5 -29z m-3160 -134 c19 -14 35 -37 35 -50 0 -13 23 -32 50 -42 55 -21 64 -49 25 -74 -14 -9 -25 -29 -25 -46 0 -16 -12 -27 -27 -24 -15 3 -41 -6 -59 -20 -27 -23 -29 -20 -19 19 8 34 -3 56 -47 90 -57 46 -58 46 -15 72 37 24 41 23 31 -5 -14 -35 53 -82 87 -61 25 15 -70 109 -110 109 -35 0 -100 -100 -78 -120 9 -9 35 -19 57 -23 49 -9 66 -92 23 -109 -50 -19 -120 29 -92 63 19 23 17 29 -9 29 -48 0 -61 53 -26 107 74 113 130 137 199 85z m3330 -112 c80 -49 81 -65 5 -94 -54 -20 -58 -28 -41 -74 16 -41 14 -52 -9 -52 -17 0 -31 11 -32 25 -1 14 -15 -6 -31 -43 -21 -48 -36 -61 -51 -46 -15 15 -12 31 11 54 18 18 33 39 33 45 0 7 -11 2 -24 -11 -33 -33 -57 -30 -44 4 6 15 1 34 -11 41 -12 8 -16 22 -10 32 6 11 -12 28 -41 39 -29 11 -47 29 -40 40 19 30 102 24 130 -10 39 -46 60 -36 60 30 0 71 9 73 95 20z m-3465 -273 c12 -24 34 -57 48 -75 15 -18 18 -32 7 -32 -11 0 -47 -5 -79 -12 -48 -9 -71 0 -123 52 -67 67 -83 112 -33 93 17 -7 30 -4 30 5 0 38 130 11 150 -31z m3550 -37 c13 -16 33 -24 44 -17 13 7 15 -6 6 -35 -15 -52 -85 -117 -125 -118 -29 0 -35 -40 -5 -40 10 0 49 18 85 40 82 50 114 51 101 2 -27 -105 -246 -131 -246 -30 0 14 -18 31 -40 38 -22 7 -40 29 -40 50 0 20 -5 51 -12 68 -8 21 -1 32 20 32 19 0 32 -17 32 -40 0 -27 13 -40 40 -40 22 0 40 9 40 20 0 11 20 21 45 22 42 1 41 3 -10 26 -31 13 -50 31 -42 38 24 24 81 15 107 -16z m-3704 -143 c15 -25 38 -30 101 -22 46 6 88 3 94 -6 12 -19 -79 -48 -137 -44 -21 2 -33 -8 -28 -21 5 -13 28 -22 51 -19 49 5 56 -19 15 -53 -42 -35 -190 30 -214 94 -11 27 -17 51 -14 52 3 1 24 13 46 26 54 32 65 31 86 -7z m3804 -167 c0 -11 18 -20 40 -20 22 0 40 -7 39 -15 -1 -21 -59 -96 -59 -76 0 10 -18 1 -39 -19 -37 -33 -43 -33 -90 -3 -27 18 -64 33 -81 33 -22 0 -13 18 30 60 59 57 160 83 160 40z m-3850 -60 c28 24 40 20 88 -31 l55 -59 -45 -35 c-58 -46 -99 -44 -148 5 -22 22 -49 40 -60 40 -11 0 -20 9 -20 20 0 11 14 20 30 20 17 0 30 16 30 35 1 29 4 30 19 6 15 -24 23 -24 51 -1z m3933 -183 c45 -52 45 -47 3 -97 -36 -41 -98 -54 -109 -22 -4 11 -42 2 -85 -20 -44 -21 -83 -34 -87 -29 -20 19 26 58 122 103 l103 48 -95 -9 c-52 -5 -95 -2 -95 6 0 69 187 84 243 20z m-3820 -52 c2 -19 3 -48 2 -64 -1 -16 11 -38 27 -50 20 -15 25 -41 16 -87 -14 -70 -61 -78 -54 -9 5 46 -53 79 -75 43 -8 -13 -31 -18 -50 -10 -29 11 -31 8 -9 -18 14 -16 40 -30 57 -31 30 0 30 -2 0 -20 -43 -25 -92 -5 -108 43 -6 21 -21 38 -33 38 -33 0 21 56 86 88 32 16 58 21 58 11 0 -10 13 -13 30 -6 63 24 2 47 -91 35 -92 -12 -99 -10 -99 29 0 59 238 67 243 8z m3777 -197 c0 -13 20 -30 45 -38 38 -12 40 -16 10 -24 -19 -5 -35 -20 -35 -32 0 -45 -156 -40 -180 6 -12 22 -37 40 -56 40 -23 0 -15 12 26 39 65 41 190 48 190 9z m-3740 -121 c0 -7 -16 -25 -35 -40 -33 -26 -33 -27 0 -15 20 7 35 3 35 -10 0 -12 -9 -22 -21 -22 -14 0 -14 -12 0 -37 11 -21 14 -43 7 -50 -6 -7 3 -18 21 -25 18 -7 33 -25 33 -40 0 -46 -74 -32 -116 22 -22 28 -44 50 -50 50 -5 0 -15 -22 -22 -50 -18 -72 -55 -63 -118 29 -46 67 -44 71 31 71 56 0 66 8 71 55 7 57 34 73 50 30 7 -18 19 -16 46 10 37 35 68 46 68 22z m3685 -102 c-3 -14 8 -25 24 -25 56 0 75 -72 41 -154 -47 -111 -115 -138 -181 -73 -18 19 -52 35 -76 37 -59 5 -58 105 3 166 42 42 44 42 44 5 0 -45 9 -52 95 -70 42 -9 65 -6 65 7 0 12 -21 22 -48 22 -57 0 -101 48 -84 91 14 38 125 32 117 -6z m-5493 -268 c8 -13 -1 -34 -19 -47 -18 -13 -27 -30 -19 -37 7 -7 2 -13 -11 -13 -34 0 -28 -74 8 -88 26 -9 30 -60 11 -128 -5 -16 -82 41 -82 61 0 13 -24 43 -54 67 -68 54 -42 148 41 148 27 0 54 14 60 30 14 36 45 39 65 7z m6968 -37 c0 -22 9 -40 20 -40 11 0 20 14 20 30 0 17 9 30 20 30 12 0 15 -21 8 -50 -10 -41 -5 -50 30 -50 50 0 57 -55 9 -74 -30 -11 -30 -14 1 -37 47 -34 5 -57 -46 -25 -29 17 -37 38 -29 70 7 27 2 46 -11 46 -12 0 -23 -29 -24 -65 -2 -48 -9 -34 -26 55 -14 66 -21 127 -17 135 15 30 45 14 45 -25z m354 -13 c27 -42 28 -53 6 -67 -23 -14 -22 -31 5 -98 43 -110 -12 -118 -57 -9 -22 52 -37 66 -53 50 -15 -15 -14 -30 4 -52 21 -25 21 -31 -3 -31 -51 0 -66 36 -59 142 5 69 13 94 25 76 14 -23 17 -23 18 3 0 50 78 41 114 -14z m140 13 c-13 -49 17 -53 44 -5 28 51 52 13 27 -43 -20 -42 -17 -50 21 -60 l44 -13 -40 -34 c-23 -19 -38 -51 -34 -70 9 -43 -4 -44 -45 -4 -21 21 -27 49 -18 83 9 37 6 48 -10 38 -13 -8 -23 -41 -23 -74 0 -33 -9 -55 -19 -49 -17 11 -10 181 10 246 13 42 54 28 43 -15z m-7114 -13 c0 -8 -16 -32 -35 -53 -34 -39 -34 -39 9 -17 85 45 78 -11 -9 -68 -46 -31 -50 -31 -39 -1 8 20 2 32 -17 32 -33 0 -40 -71 -9 -90 36 -22 21 -50 -26 -50 -25 0 -73 24 -107 53 l-62 54 60 58 c42 41 74 56 107 50 26 -5 58 3 70 18 24 28 58 36 58 14z m6476 -25 c7 -21 -4 -25 -48 -14 -41 9 -49 7 -29 -6 26 -17 25 -22 -3 -32 -79 -31 -53 -64 27 -37 84 29 128 21 103 -19 -8 -13 -12 -40 -9 -59 4 -24 -8 -35 -37 -35 -34 0 -40 -9 -30 -40 17 -53 1 -50 -81 12 -76 58 -85 97 -38 164 17 24 25 44 18 44 -8 0 -2 14 12 31 30 36 102 31 115 -9z m-7235 -3 c22 -11 39 -38 39 -60 0 -21 9 -39 20 -39 11 0 20 23 20 50 0 31 11 50 30 50 39 0 38 -40 -3 -98 -31 -45 -31 -46 12 -32 37 11 43 7 37 -23 -9 -39 -17 -40 -92 -18 -37 12 -49 6 -58 -27 -12 -48 -46 -57 -46 -12 0 21 -21 30 -70 30 -65 0 -70 4 -59 48 7 26 2 54 -10 61 -24 15 -10 51 20 51 11 0 19 -17 19 -39 0 -21 10 -45 23 -53 16 -10 19 2 10 39 -10 40 -6 53 17 53 16 0 30 9 30 20 0 25 13 25 61 -1z m2256 -96 c-101 -73 -144 -66 -215 34 l-40 57 133 4 c74 2 139 9 145 15 5 6 13 -9 17 -33 4 -28 -10 -56 -40 -77z m6035 26 c10 -57 18 -66 40 -47 17 14 28 15 28 3 0 -33 -57 -70 -90 -58 -38 15 -38 -8 -1 -58 37 -48 39 -89 5 -89 -14 0 -37 29 -51 65 -25 63 -26 64 -44 20 -11 -29 -34 -44 -63 -43 -25 0 -35 6 -21 11 37 15 30 41 -15 53 -51 13 -75 72 -38 96 15 9 46 12 67 5 38 -12 38 -10 5 40 -19 29 -27 53 -17 53 10 0 25 -15 32 -34 11 -29 16 -30 31 -7 14 24 25 20 58 -20 29 -35 41 -40 41 -18 1 17 -9 41 -21 53 -25 25 -5 73 23 56 9 -6 23 -43 31 -81z m-8643 -56 c8 -28 23 -34 61 -25 37 9 50 5 50 -18 0 -16 -16 -30 -35 -31 -19 0 -4 -14 33 -30 53 -23 63 -36 46 -53 -18 -18 -31 -15 -52 15 -16 21 -35 32 -44 24 -8 -8 -4 -15 9 -15 13 0 23 -15 23 -32 0 -26 -6 -28 -28 -9 -22 17 -32 17 -43 0 -10 -17 -18 -16 -30 3 -12 18 -20 10 -30 -28 -7 -30 -26 -54 -41 -54 -43 0 -33 82 15 134 l44 46 -64 0 c-77 0 -79 25 -9 117 57 75 56 75 95 -44z m1433 42 c2 -25 1 -63 0 -85 -3 -39 -3 -39 27 -1 30 38 31 38 31 -5 0 -44 -16 -52 -87 -45 -38 4 -18 -61 28 -90 14 -8 13 -22 -2 -41 -32 -38 -59 -35 -59 7 -1 65 -37 101 -61 60 -12 -19 -40 -35 -62 -35 -33 0 -37 6 -20 27 17 20 11 33 -27 53 -28 15 -50 38 -50 52 0 29 70 56 100 38 26 -16 25 2 -1 51 -26 49 -3 51 33 4 16 -21 27 -25 27 -10 2 45 36 26 49 -26 7 -28 22 -45 33 -39 12 8 12 26 -1 50 -28 53 -25 80 10 80 17 0 31 -19 32 -45z m4666 -4 c26 -1 40 -51 15 -51 -44 0 -123 48 -123 74 0 22 8 23 45 2 25 -13 53 -25 63 -25z m1106 -49 c13 -20 30 -71 37 -112 12 -61 18 -69 33 -42 13 23 11 44 -5 63 -20 24 -17 38 11 69 45 49 79 52 60 5 -7 -19 -17 -66 -22 -103 -15 -113 -142 -168 -189 -81 -12 22 -45 50 -73 61 -67 25 -46 46 31 29 35 -8 63 -29 69 -52 6 -22 25 -39 42 -39 36 0 6 75 -43 106 -40 26 -29 134 14 134 6 0 22 -17 35 -38z m1747 17 c46 -24 52 -79 9 -79 -16 0 -30 8 -30 17 0 17 -95 15 -112 -2 -4 -5 28 -26 72 -47 74 -35 116 -86 50 -61 -18 7 -30 1 -30 -15 0 -15 -13 -38 -30 -52 -25 -20 -30 -19 -30 8 0 40 -32 42 -47 2 -20 -51 -50 -33 -49 27 1 32 -4 67 -12 80 -24 38 26 103 79 103 27 0 49 9 49 20 0 26 32 25 81 -1z m-9244 -124 l49 -45 -11 45 c-13 52 20 62 39 12 8 -21 -4 -47 -33 -70 l-45 -37 47 -3 c26 -2 60 -4 77 -5 16 -1 33 -18 36 -38 6 -31 -2 -35 -62 -23 -66 12 -69 10 -59 -39 7 -39 1 -52 -24 -52 -20 0 -28 9 -19 23 10 17 3 19 -24 8 -104 -44 -164 -1 -88 63 l42 36 -56 13 -56 12 59 3 c56 2 57 3 20 33 -37 30 -34 31 38 19 52 -9 73 -6 64 9 -7 11 -35 21 -62 21 -30 0 -49 12 -49 30 0 44 60 36 117 -15z m2063 31 c0 -7 -19 -33 -42 -58 l-42 -44 44 -44 c52 -52 36 -80 -24 -42 -35 22 -40 21 -32 -1 33 -87 37 -117 16 -117 -29 0 -80 50 -80 79 0 11 -13 21 -30 21 -16 0 -30 8 -30 17 0 10 -22 13 -50 8 -27 -5 -50 -1 -50 10 0 39 60 69 120 61 66 -10 76 6 30 44 -61 50 -35 80 70 80 55 0 100 -6 100 -14z m5138 -77 c12 7 22 1 22 -15 0 -16 18 -34 40 -40 34 -9 40 -25 37 -103 -2 -64 -10 -86 -24 -72 -12 12 -36 21 -55 21 -49 0 -80 48 -87 134 -7 85 6 123 29 86 9 -14 26 -19 38 -11z m2232 -10 c7 -11 37 -18 67 -15 36 4 53 -3 53 -24 0 -16 -13 -30 -30 -31 -65 -1 -109 -45 -104 -102 6 -79 -64 -126 -97 -66 -16 30 -16 49 1 68 15 19 15 31 1 40 -12 8 -21 35 -21 61 0 68 99 120 130 69z m-9769 -124 c0 -42 2 -42 27 -10 34 45 52 44 52 -3 0 -68 -23 -109 -44 -79 -13 20 -16 16 -12 -13 4 -27 25 -42 61 -46 30 -4 55 -11 55 -17 0 -27 -94 -84 -123 -75 -19 5 -39 0 -46 -11 -30 -48 -61 -16 -66 67 -3 58 5 95 25 112 16 14 30 46 30 72 0 27 9 48 20 48 11 0 20 -20 21 -45z m10092 -134 c0 -33 -7 -55 -15 -50 -8 5 -18 -11 -22 -36 -5 -35 -21 -46 -76 -52 -38 -3 -81 -16 -95 -27 -17 -15 -25 -14 -25 0 0 12 9 27 21 35 11 7 16 28 10 47 -14 44 75 132 117 115 17 -6 36 -3 43 8 22 37 42 18 42 -40z m-10326 -108 c-1 -18 4 -33 13 -33 8 0 20 -19 26 -42 9 -32 21 -38 54 -28 45 14 100 -19 100 -60 0 -28 -70 -53 -91 -33 -7 7 -44 13 -83 13 -90 0 -125 46 -89 115 14 26 24 56 22 66 -7 38 1 52 26 44 14 -5 24 -24 22 -42z m10393 -37 c0 -24 -20 -64 -43 -90 -24 -25 -39 -51 -32 -57 18 -18 91 35 102 74 9 35 64 37 115 6 18 -11 -51 -78 -82 -79 -41 -1 -106 -70 -66 -70 23 0 46 11 51 25 9 28 115 -10 115 -41 0 -28 -211 -16 -247 13 -43 36 -42 55 12 168 48 102 75 121 75 51z m-10484 -200 c13 -13 24 -42 25 -65 0 -40 1 -40 30 -2 20 27 35 33 50 18 23 -23 -14 -74 -66 -93 -20 -7 -20 -17 0 -51 34 -57 33 -59 -26 -48 -40 8 -54 1 -63 -32 -12 -50 -56 -57 -73 -13 -7 17 -30 30 -52 30 -23 0 -41 10 -41 22 0 14 19 18 50 10 29 -7 50 -4 50 8 0 11 -11 20 -25 20 -47 0 -35 120 13 122 55 3 56 3 102 -15 39 -15 39 -14 5 38 -49 76 -36 108 21 51z m10819 -170 c35 -46 31 -86 -7 -86 -21 0 -28 11 -20 31 6 17 4 26 -6 20 -10 -6 -29 3 -42 19 -48 58 -63 29 -22 -41 56 -95 54 -100 -37 -104 -63 -2 -77 3 -67 27 9 24 0 27 -41 17 -57 -14 -76 23 -23 44 17 6 30 27 30 45 0 86 175 107 235 28z m-10964 -238 c-12 -50 -11 -51 33 -20 54 38 103 42 90 7 -5 -14 -21 -22 -35 -19 -21 5 -21 1 0 -25 22 -26 21 -31 -7 -31 -17 0 -32 -15 -32 -32 0 -27 -5 -28 -30 -8 -39 33 -38 11 3 -52 20 -30 26 -57 15 -68 -30 -30 -71 10 -86 82 l-13 67 -47 -47 c-53 -53 -71 -39 -92 74 -15 82 -6 94 47 66 61 -33 99 -27 113 18 19 60 57 49 41 -12z m11069 11 c0 -11 -13 -19 -30 -19 -16 0 -30 -9 -30 -20 0 -11 14 -20 31 -20 17 0 26 -9 19 -20 -7 -11 -30 -20 -51 -20 -26 0 -39 -14 -39 -40 0 -45 -39 -53 -76 -16 -19 19 -24 19 -24 0 0 -13 -13 -24 -30 -24 -35 0 -37 10 -9 61 16 31 14 39 -10 39 -69 0 -23 35 94 72 126 40 155 41 155 7z m58 -250 c32 -33 -33 -119 -90 -120 -34 0 -87 -17 -117 -36 -30 -20 -58 -32 -63 -27 -19 19 17 70 66 92 42 19 47 29 27 48 -20 19 -28 18 -35 -1 -13 -35 -46 -31 -46 6 0 56 209 87 258 38z m-11245 -82 l12 -49 46 43 c25 24 56 37 68 30 32 -20 25 -40 -23 -61 -59 -27 -70 -70 -18 -70 38 0 45 -9 41 -55 -1 -8 -13 -13 -26 -10 -13 3 -35 -24 -48 -58 -26 -69 -85 -52 -85 25 0 47 -15 48 -68 3 -29 -24 -27 -17 8 23 50 56 50 57 5 43 -25 -7 -45 -8 -45 -1 0 8 20 30 45 50 25 20 39 42 32 49 -7 7 -26 -1 -43 -18 -39 -39 -74 -40 -74 -2 0 18 29 35 73 43 64 12 69 17 41 38 -38 27 -25 53 18 36 16 -6 34 -32 41 -59z m11287 -129 c0 -12 -18 -27 -40 -32 -39 -10 -39 -12 -5 -38 32 -25 31 -27 -18 -27 -37 -1 -56 -14 -64 -45 -11 -41 -14 -42 -48 -11 -24 22 -53 29 -86 21 -48 -13 -48 -12 -16 35 18 27 50 49 73 49 71 0 73 30 2 33 -55 3 -50 6 32 17 157 22 170 21 170 -2z m-11341 -220 c37 -31 43 -45 23 -57 -19 -12 -20 -20 -3 -30 12 -8 45 0 72 18 49 32 49 32 49 -39 0 -38 -9 -70 -20 -70 -11 0 -20 -22 -20 -50 0 -27 -9 -50 -20 -50 -11 0 -20 9 -20 19 0 10 -25 31 -55 45 -33 16 -58 46 -62 74 -4 27 -26 66 -50 87 l-43 38 54 -9 c48 -7 52 -4 34 29 -25 48 0 46 61 -5z m11193 -49 c9 -37 19 -46 35 -30 32 32 61 25 33 -9 -20 -25 -19 -30 8 -30 44 0 40 -25 -10 -57 -23 -14 -37 -31 -30 -38 6 -6 30 5 52 25 44 40 72 30 53 -20 -7 -17 -40 -36 -75 -43 l-63 -13 48 -26 c47 -27 47 -27 3 -27 -44 -1 -96 62 -72 86 7 7 3 13 -9 13 -12 0 -38 -22 -58 -50 -28 -37 -44 -44 -67 -29 -25 17 -21 26 25 61 64 48 71 78 17 78 -40 0 -72 51 -43 69 10 6 22 0 27 -14 9 -24 16 -12 43 75 15 48 69 34 83 -21z m-10968 -321 c-4 -21 -23 -51 -43 -68 -19 -16 -41 -46 -47 -65 -22 -62 -154 -38 -154 27 0 21 -13 38 -30 38 -17 0 -30 18 -30 40 0 42 29 54 50 20 23 -36 127 -23 150 20 28 52 113 42 104 -12z m10991 -27 c82 -90 85 -98 65 -152 -26 -67 -69 -53 -72 23 -3 110 -12 118 -36 29 -13 -48 -36 -92 -51 -97 -19 -7 -23 1 -15 23 9 24 2 33 -25 33 -21 0 -44 9 -51 20 -7 11 -3 20 9 20 37 0 23 37 -19 50 -52 16 -52 58 -1 44 22 -5 50 3 63 18 32 39 92 35 133 -11z m-10985 -236 c0 -40 13 -56 50 -66 44 -12 46 -15 13 -29 -29 -12 -34 -29 -24 -83 14 -74 -7 -86 -59 -34 -24 24 -38 27 -55 10 -17 -17 -14 -23 13 -23 19 0 32 -11 27 -24 -16 -49 -52 -36 -65 23 -9 42 -25 61 -52 61 -21 0 -38 9 -38 20 0 11 9 20 20 20 11 0 20 13 20 29 0 15 19 34 43 42 33 10 36 17 15 31 -16 9 -44 12 -63 6 -23 -7 -35 0 -35 21 0 36 18 38 88 12 29 -11 55 -12 61 -2 6 10 1 21 -12 25 -14 5 -17 19 -8 34 23 38 61 -8 61 -73z m10905 -60 c54 -113 -7 -254 -62 -145 -19 40 -40 50 -98 50 -94 0 -140 41 -89 79 20 15 53 22 75 17 21 -6 39 -1 39 12 0 37 117 26 135 -13z m-10742 -220 c-6 -30 -7 -44 -1 -30 6 14 20 25 31 25 10 0 17 -11 16 -25 -7 -54 27 -115 63 -115 21 0 38 -13 38 -30 0 -35 -83 -41 -141 -9 -35 18 -39 14 -39 -42 0 -68 -36 -69 -138 -2 l-47 31 63 30 c56 26 62 37 50 89 -10 49 -7 57 20 46 23 -8 39 3 52 37 25 67 47 64 33 -5z m10602 15 c25 -16 45 -45 45 -63 0 -19 11 -38 25 -43 46 -16 -3 -39 -84 -39 -89 0 -141 31 -141 86 0 20 -9 42 -20 49 -40 25 -18 40 55 40 41 0 95 -14 120 -30z m-150 -194 c75 -14 72 -66 -3 -66 -32 0 -62 10 -66 22 -4 13 -25 19 -47 15 -31 -6 -25 -14 34 -42 77 -37 103 -76 84 -125 -17 -45 -34 -38 -114 52 -47 52 -73 70 -73 49 0 -18 14 -37 30 -44 33 -13 39 -81 11 -126 -17 -26 -20 -26 -27 0 -5 16 -19 61 -31 100 -39 122 13 218 104 189 24 -8 68 -18 98 -24z m-10250 -91 c-4 -49 2 -63 25 -58 61 16 86 12 95 -12 5 -17 -3 -21 -27 -11 -33 12 -33 10 -2 -35 19 -26 34 -64 34 -83 0 -47 -71 -47 -91 -1 -12 30 -17 28 -30 -15 -9 -30 -16 -36 -17 -17 -2 31 -7 31 -64 3 -84 -42 -113 -11 -70 75 40 81 40 77 -11 64 -30 -8 -39 -4 -29 12 19 30 77 29 111 -2 22 -21 24 -12 15 49 -10 69 1 89 51 94 8 1 13 -27 10 -63z m9885 -152 c0 -10 22 -18 50 -18 78 0 110 -39 107 -132 -3 -95 -26 -133 -79 -133 -48 0 -47 17 2 80 65 83 47 115 -26 44 -70 -68 -105 -82 -87 -35 6 15 -2 39 -18 52 -38 31 -37 66 1 52 34 -13 42 37 10 57 -30 19 -24 50 10 50 17 0 30 -8 30 -17z m-9510 -196 c-4 -12 3 -32 15 -44 26 -26 26 -26 -65 -68 -60 -29 -76 -29 -112 -5 -24 15 -62 23 -85 16 -58 -15 -56 30 2 53 l45 18 -45 2 c-25 0 -45 9 -45 19 0 34 89 42 114 10 30 -41 69 -17 65 39 -6 74 0 77 60 30 32 -26 56 -57 51 -70z m9407 -53 c70 -107 77 -134 33 -134 -16 0 -30 14 -30 31 0 17 -9 26 -19 20 -11 -7 -14 -25 -8 -42 6 -16 2 -29 -10 -29 -11 0 -26 19 -34 42 -9 29 -25 39 -51 32 -31 -8 -38 1 -38 48 0 32 -9 58 -20 58 -11 0 -20 9 -20 20 0 11 23 20 50 20 34 0 50 11 50 34 0 41 13 28 97 -100z m-9200 -46 c3 -32 14 -67 25 -77 57 -59 -33 -168 -106 -129 -27 14 -47 14 -64 0 -14 -12 -32 -16 -39 -8 -28 27 -11 57 49 84 55 24 61 34 50 87 -13 63 17 122 56 109 12 -4 25 -33 29 -66z m8996 -28 c45 -99 49 -135 16 -168 -17 -18 -25 -32 -17 -32 8 0 10 -5 3 -11 -25 -25 -132 50 -122 86 6 22 -11 55 -42 84 -94 88 -53 113 47 29 46 -38 62 -44 62 -21 0 17 -9 36 -20 43 -33 20 -23 53 15 46 19 -3 45 -29 58 -56z m-215 -120 c46 -124 39 -198 -11 -129 -24 33 -27 33 -27 3 0 -19 -9 -34 -20 -34 -11 0 -20 23 -20 52 0 36 -9 49 -27 42 -48 -19 -85 18 -54 54 19 24 20 39 4 59 -33 39 -7 54 49 28 27 -12 46 -35 43 -51 -3 -17 6 -34 20 -39 19 -6 21 4 5 45 -21 54 -26 90 -13 90 4 0 27 -54 51 -120z m-8601 67 c25 -46 77 -51 94 -10 12 27 17 24 27 -16 8 -30 33 -54 61 -61 55 -13 80 -60 32 -60 -24 0 -29 -12 -19 -50 9 -38 5 -50 -20 -50 -25 0 -30 12 -20 50 8 31 4 50 -10 50 -12 0 -22 -19 -22 -41 0 -24 -9 -36 -21 -28 -11 7 -34 1 -50 -12 -40 -33 -57 -12 -57 72 0 79 -5 82 -56 36 -20 -18 -43 -27 -51 -18 -8 8 11 35 42 60 56 45 56 46 13 57 -25 6 -38 21 -31 33 20 32 67 25 88 -12z m8251 -36 c-8 -21 5 -28 51 -27 96 3 106 -58 15 -99 l-44 -19 45 -14 c25 -8 45 -25 45 -37 0 -16 -7 -16 -24 1 -34 34 -63 30 -49 -6 15 -38 3 -38 -58 2 -28 19 -49 24 -49 11 0 -12 18 -31 41 -43 22 -12 35 -31 28 -41 -21 -34 -49 -20 -89 46 -27 43 -40 53 -40 30 0 -19 -9 -35 -20 -35 -38 0 -20 77 21 90 45 15 20 70 -32 70 -37 0 -50 27 -29 61 15 24 25 21 60 -16 50 -54 84 -58 79 -10 -6 55 -1 65 30 65 18 0 25 -12 19 -29z m-353 -116 c10 -14 24 -43 30 -65 6 -22 17 -58 25 -80 11 -32 10 -34 -8 -10 -12 18 -22 20 -22 7 0 -16 -35 -9 -100 19 -96 40 -131 97 -87 141 23 23 141 14 162 -12z m-6936 -588 c78 -99 38 -279 -46 -209 -15 12 -34 15 -43 7 -9 -8 -10 -4 -2 10 9 16 1 26 -22 27 -21 0 -26 5 -11 11 45 18 27 50 -20 35 -39 -12 -41 -10 -19 18 23 26 21 29 -13 20 -56 -14 -44 48 19 96 66 51 108 47 157 -15z m-203 -311 c3 -154 -82 -227 -166 -143 -18 18 -52 34 -75 35 -69 3 -67 52 3 52 40 0 68 -13 82 -40 12 -22 35 -40 52 -40 39 0 -25 93 -76 110 -32 11 -35 63 -6 110 17 27 56 -13 108 -112 32 -59 42 -67 42 -34 0 23 -11 46 -24 51 -18 6 -18 23 2 71 36 86 55 67 58 -60z m7168 -56 c51 0 59 -6 48 -40 -6 -22 -18 -60 -25 -85 l-13 -45 53 48 c42 39 53 42 53 17 0 -18 -9 -38 -20 -45 -11 -7 -38 -46 -59 -86 l-39 -74 -25 65 c-14 36 -35 63 -47 60 -33 -7 -159 105 -138 123 77 66 138 102 144 83 4 -11 35 -21 68 -21z m-7516 -123 c28 46 77 26 67 -27 -7 -39 -1 -50 27 -50 24 0 33 -10 25 -30 -6 -16 -34 -30 -62 -30 -42 0 -46 -5 -25 -30 60 -72 1 -39 -95 53 -108 103 -127 137 -75 137 17 0 30 -10 30 -21 0 -12 9 -16 19 -10 11 7 14 28 8 47 -7 22 3 18 28 -14 26 -31 44 -40 53 -25z m7798 -136 c-6 -28 -18 -55 -26 -61 -7 -5 -19 -26 -26 -45 -10 -27 -36 -35 -107 -35 -74 0 -90 5 -71 24 13 13 24 38 24 54 0 51 83 112 153 113 61 2 65 -2 53 -50z m-7966 -26 c1 -69 66 -174 87 -140 6 11 -6 36 -27 55 -44 40 -54 98 -15 85 14 -5 25 -18 25 -31 0 -12 18 -35 39 -51 41 -30 2 -133 -51 -133 -11 0 -18 -16 -15 -35 8 -42 0 -45 -104 -45 -45 0 -77 8 -71 17 6 9 1 51 -10 92 -25 89 -12 110 39 64 44 -40 74 45 51 139 -9 36 -4 48 20 48 23 0 32 -19 32 -65z m8075 -160 c50 -4 -18 -175 -70 -175 -14 0 -25 -9 -25 -20 0 -35 32 -22 102 40 82 72 93 73 93 15 0 -68 -163 -170 -205 -128 -16 17 -30 40 -30 52 0 11 -18 21 -41 21 -22 0 -45 16 -51 35 -6 19 -19 50 -29 69 -11 21 -11 39 1 46 26 16 60 -6 60 -39 0 -14 21 -30 47 -35 38 -7 46 -2 38 25 -5 23 5 39 28 45 25 6 19 10 -18 12 -57 2 -74 31 -30 49 14 6 43 6 65 0 22 -5 51 -11 65 -12z m-8272 -188 c41 24 87 -15 63 -53 -6 -10 8 -12 31 -5 56 18 56 -21 1 -50 -31 -17 -36 -29 -20 -45 51 -51 14 -49 -103 7 -123 58 -193 140 -92 108 40 -13 43 -10 22 15 -33 40 -5 65 32 28 22 -23 36 -24 66 -5z m8449 -137 c18 -27 45 -50 60 -50 31 0 38 -32 11 -48 -10 -6 -43 -3 -75 6 -73 20 -108 8 -108 -37 0 -23 -19 -40 -52 -46 -62 -12 -86 31 -44 81 15 19 39 59 52 89 31 72 110 75 156 5z m-8535 -81 c28 -62 29 -75 3 -59 -11 7 -20 -3 -20 -21 0 -27 13 -31 69 -20 l69 13 -21 -61 c-11 -34 -32 -61 -47 -61 -14 0 -30 -18 -36 -40 -11 -45 -54 -55 -54 -13 0 15 -19 44 -42 64 -31 29 -38 53 -30 96 7 33 2 71 -11 86 -35 43 -2 58 41 18 38 -33 39 -33 28 7 -15 59 23 52 51 -9z m8533 -158 c44 -18 73 -46 81 -78 7 -28 25 -55 41 -61 48 -18 32 -56 -17 -40 -40 12 -42 10 -17 -20 41 -49 14 -60 -47 -21 -40 26 -47 39 -27 51 21 13 21 21 -1 42 -21 21 -34 16 -73 -29 l-48 -55 -14 74 c-9 49 -6 77 9 82 13 4 23 25 23 46 0 46 2 46 90 9z m-8654 -205 c52 -30 97 -60 100 -67 3 -7 30 -9 60 -4 51 8 51 6 -16 -36 -38 -24 -73 -52 -77 -62 -3 -9 -14 -13 -23 -7 -9 6 -40 0 -69 -13 -40 -18 -58 -18 -75 -1 -18 18 -7 27 43 37 l66 13 -52 28 c-72 37 -67 45 22 34 l75 -9 -82 39 c-45 21 -88 52 -94 70 -18 46 16 40 122 -22z m8575 -128 c7 -12 3 -32 -9 -44 -33 -33 -27 -44 28 -47 28 -1 50 6 50 16 0 11 20 14 45 7 44 -12 44 -11 6 19 -21 17 -48 31 -59 31 -12 0 -12 8 2 22 30 30 101 4 116 -43 7 -22 21 -34 31 -28 39 23 17 -26 -30 -70 -27 -25 -72 -46 -100 -46 -28 0 -51 -9 -51 -19 0 -11 48 -14 115 -8 78 7 99 5 65 -7 -36 -12 -40 -18 -14 -19 88 -5 1 -42 -98 -42 -63 0 -105 8 -99 19 6 10 2 24 -9 31 -11 7 -15 22 -9 32 7 11 1 34 -14 52 -33 40 -36 166 -3 166 13 0 30 -10 37 -22z m-8408 -180 c-4 -26 -14 -51 -24 -54 -9 -4 -12 -20 -6 -35 6 -16 -1 -29 -16 -29 -15 -1 -5 -18 23 -39 36 -28 44 -45 28 -61 -30 -30 -85 -4 -117 57 l-27 53 -25 -55 c-33 -71 -51 -69 -99 10 -54 87 -51 95 30 95 61 0 70 6 70 50 0 53 19 63 53 29 14 -14 29 -11 47 11 36 44 71 26 63 -32z m8552 -171 c25 -6 45 -24 45 -39 0 -16 10 -26 23 -23 12 3 26 -6 31 -20 5 -14 -5 -25 -22 -25 -18 0 -33 -16 -34 -35 0 -19 -5 -24 -11 -11 -6 14 -34 19 -76 12 -56 -9 -69 -3 -80 32 -8 23 -29 42 -47 42 -23 0 -15 13 26 40 65 43 77 45 145 27z m-8537 -105 c24 -16 23 -24 -5 -52 -46 -46 -41 -83 11 -82 27 1 48 -12 52 -33 5 -23 -2 -31 -21 -24 -20 8 -26 -6 -23 -50 6 -95 -65 -105 -108 -15 -16 32 -22 35 -23 11 0 -17 -14 -43 -31 -57 -36 -30 -38 -13 -8 44 19 36 18 40 -10 30 -35 -14 -45 16 -12 36 11 7 20 28 20 46 -1 27 -9 24 -38 -14 -24 -31 -46 -42 -63 -31 -19 12 -9 30 42 72 48 41 58 57 33 57 -19 0 -34 9 -34 20 0 35 59 22 84 -19 29 -46 76 -20 76 41 0 42 15 47 58 20z m8355 -73 c7 -18 3 -41 -9 -53 -15 -15 -13 -30 9 -52 25 -25 34 -26 47 -4 14 23 23 23 53 -1 33 -25 33 -24 -1 16 -41 48 -33 77 15 59 22 -9 93 -119 93 -145 0 -3 -29 -12 -65 -19 -36 -7 -82 -18 -103 -24 -26 -7 -32 -3 -22 14 10 16 6 22 -9 17 -44 -15 -23 -47 33 -52 129 -13 150 -23 117 -57 -22 -22 -50 -27 -96 -18 -136 27 -140 30 -129 97 5 35 0 80 -10 100 -13 25 -13 44 2 59 12 12 22 38 22 58 0 44 37 48 53 5z m-8385 -346 c6 -10 34 -13 62 -8 97 19 188 -148 100 -182 -17 -7 -39 -35 -50 -62 -10 -28 -28 -51 -40 -51 -44 0 -7 114 42 126 21 6 38 25 38 42 0 36 -75 6 -106 -43 -19 -30 -87 -33 -104 -5 -20 32 38 76 120 91 63 12 69 18 40 34 -24 14 -39 12 -51 -6 -17 -29 -119 24 -119 61 0 25 54 26 68 3z m8468 -63 c17 -28 19 -52 6 -77 -11 -20 -12 -47 -2 -63 10 -16 13 -35 8 -44 -16 -25 -68 -19 -68 9 -2 62 -72 121 -117 97 -36 -19 -50 -17 -85 16 l-42 39 44 23 c24 13 56 18 71 12 15 -5 33 -2 40 9 21 35 118 21 145 -21z m-4861 -91 c52 -16 24 -53 -33 -45 -56 8 -57 7 -28 -38 34 -51 6 -64 -34 -16 -14 17 -40 30 -57 29 -23 0 -14 -17 32 -59 60 -55 87 -120 48 -120 -9 0 -46 41 -82 91 -36 51 -89 101 -118 113 l-53 21 60 17 c33 10 71 14 85 9 14 -6 25 -1 25 9 0 17 84 11 155 -11z m1476 -49 c21 0 20 -12 -3 -58 -34 -68 -120 -131 -138 -102 -7 11 -37 14 -66 7 -48 -12 -51 -10 -27 19 14 18 21 42 14 53 -8 12 0 21 15 21 16 0 34 19 41 43 9 36 21 40 74 30 35 -7 76 -13 90 -13z m3204 -125 c27 -30 27 -43 5 -90 -15 -30 -24 -75 -22 -100 3 -25 -5 -45 -17 -45 -11 0 -21 16 -22 35 0 33 -1 33 -21 0 -28 -49 -58 -25 -58 47 0 35 8 55 20 48 11 -7 20 2 20 19 0 22 -20 31 -71 31 l-70 0 45 61 c24 33 55 56 69 51 13 -5 36 5 51 22 23 29 27 29 33 -6 4 -21 21 -54 38 -73z m-7979 5 c-3 -43 -15 -60 -40 -60 -20 0 -36 -9 -36 -20 0 -29 17 -25 93 22 105 65 79 29 -55 -73 -89 -69 -127 -88 -144 -71 -16 16 -12 30 17 53 38 30 38 31 -6 19 -28 -8 -45 -4 -45 11 0 12 18 27 39 33 26 7 38 25 35 53 -3 33 7 43 44 43 27 1 53 12 57 25 16 49 46 24 41 -35z m4902 -120 c18 0 52 -32 77 -70 55 -84 55 -90 7 -90 -20 0 -48 -13 -62 -30 -27 -33 -90 -42 -70 -10 7 11 -9 20 -38 20 -68 0 -82 32 -42 93 42 63 24 86 -30 37 -74 -67 -65 -14 13 80 l77 92 18 -61 c10 -35 31 -61 50 -61z m-1863 21 c25 -80 17 -141 -19 -141 -12 0 -15 -22 -8 -50 9 -37 5 -50 -18 -50 -17 0 -31 19 -33 45 l-2 45 -9 -45 c-11 -55 -46 -60 -46 -7 0 21 -6 55 -14 75 -12 33 -10 34 23 8 32 -27 35 -26 28 10 -5 25 -26 41 -62 45 -68 8 -69 24 -5 84 33 31 50 38 50 19 0 -21 8 -19 34 7 48 47 53 44 81 -45z m-2892 -54 c21 -18 37 -45 37 -60 0 -15 21 -27 50 -27 51 0 67 -27 30 -50 -11 -7 -20 -37 -20 -67 0 -52 -4 -54 -110 -56 -124 -2 -128 2 -65 53 57 47 44 58 -82 73 -112 14 -144 53 -38 46 67 -5 189 34 169 53 -6 6 -29 2 -51 -10 -52 -28 -103 -28 -103 0 0 12 13 17 28 11 16 -5 44 7 63 28 43 47 46 48 92 6z m7601 -106 c23 -30 30 -53 17 -57 -11 -4 -21 -34 -21 -66 0 -64 -43 -77 -105 -30 -49 37 -44 52 17 52 39 0 49 8 40 32 -7 17 -12 40 -12 50 0 10 -10 18 -22 18 -12 0 -17 -14 -10 -31 7 -18 -2 -36 -23 -43 -62 -23 -65 -54 -10 -111 63 -66 24 -74 -54 -10 -31 25 -73 56 -93 68 -35 22 -33 26 28 48 36 13 61 29 55 35 -6 6 23 45 64 87 60 61 76 69 82 41 4 -18 25 -56 47 -83z m-4904 -86 c48 -55 77 -104 68 -118 -10 -16 -22 -12 -41 14 -26 35 -27 34 -27 -7 0 -50 -30 -59 -47 -14 -7 17 -32 28 -57 25 -37 -4 -45 4 -41 40 3 29 -6 45 -25 45 -33 0 -42 39 -10 43 11 1 28 3 38 5 39 5 47 32 20 65 -65 79 41 -6 122 -98z m2379 -96 c-13 -8 -10 -22 10 -38 44 -36 38 -66 -9 -51 -22 7 -40 4 -40 -6 0 -32 -75 -41 -115 -14 -20 15 -63 30 -96 35 l-59 7 50 23 c39 17 42 23 13 24 -62 2 -24 48 47 56 61 7 65 5 39 -26 -25 -30 -23 -33 12 -26 28 5 41 26 45 75 l7 67 58 -56 c36 -34 51 -62 38 -70z m-4819 20 c0 -41 29 -52 50 -19 7 11 21 20 32 20 18 0 -30 -75 -141 -220 -44 -56 -82 -39 -45 21 13 21 16 39 5 39 -10 0 -24 -9 -31 -20 -7 -12 -22 -15 -33 -8 -12 7 -8 25 11 46 18 20 26 52 19 78 -9 35 -3 44 28 44 24 0 45 17 51 42 13 50 54 32 54 -23z m2140 -9 c14 -16 43 -30 65 -30 34 0 38 -9 28 -62 -7 -35 -13 -84 -13 -110 0 -62 -26 -61 -61 3 l-27 51 -35 -66 c-19 -36 -36 -82 -36 -101 -1 -19 -11 -35 -23 -35 -14 0 -17 19 -9 51 15 61 -7 193 -29 179 -9 -6 -6 -37 6 -69 24 -65 7 -102 -30 -65 -19 19 -18 24 1 24 19 0 17 12 -6 44 -41 59 -40 66 22 106 43 28 55 29 69 7 12 -18 17 -6 18 38 0 70 21 82 60 35z m4820 13 c0 -10 26 -23 58 -30 38 -7 64 -28 74 -57 22 -71 25 -155 6 -167 -10 -6 -18 -1 -18 12 0 13 -14 18 -31 11 -17 -6 -35 1 -42 18 -6 17 -24 30 -39 30 -15 0 -28 7 -29 15 -10 137 -9 185 5 185 9 0 16 -8 16 -17z m-1947 -68 c71 -114 4 -307 -90 -257 -20 11 -56 15 -80 9 -68 -18 -52 38 22 75 52 26 64 44 61 87 -6 81 54 140 87 86z m1834 -46 c-6 -16 -24 -29 -39 -29 -15 0 -28 -18 -28 -40 0 -22 13 -40 29 -40 15 0 32 -16 37 -35 6 -21 10 -13 12 21 1 32 11 51 22 44 25 -16 26 -104 1 -119 -11 -7 -14 -25 -8 -42 6 -16 7 -29 2 -29 -31 0 -139 70 -164 105 -17 24 -35 38 -40 32 -6 -5 12 -40 39 -77 60 -81 63 -111 13 -114 -55 -4 -140 180 -104 223 14 17 37 31 51 31 14 0 30 18 36 40 6 23 27 40 51 40 22 0 46 9 53 20 19 30 50 4 37 -31z m-6616 -21 c27 -18 49 -44 49 -58 0 -14 14 -31 30 -37 35 -14 40 -53 7 -53 -13 0 -41 -15 -61 -34 -32 -29 -48 -30 -100 -11 -42 16 -73 17 -99 4 -29 -16 -37 -13 -37 10 0 17 11 31 25 32 14 0 8 10 -13 22 -36 21 -36 24 10 49 63 35 78 34 78 -4 0 -17 11 -27 25 -23 14 5 24 37 22 72 -3 73 -2 74 64 31z m1687 -140 c72 -154 71 -148 32 -148 -16 0 -30 9 -30 20 0 11 -9 20 -20 20 -11 0 -20 -13 -20 -30 0 -16 -9 -30 -20 -30 -11 0 -20 23 -20 51 0 31 -8 46 -21 38 -42 -26 -82 7 -60 49 14 26 14 44 1 52 -39 24 -19 55 30 45 39 -7 50 -1 50 28 0 60 13 44 78 -95z m-1398 36 c0 -20 10 -46 23 -59 34 -34 46 -231 13 -220 -14 4 -29 28 -32 52 l-7 44 -38 -46 c-41 -50 -51 -35 -18 27 40 75 7 85 -36 11 -24 -40 -57 -73 -74 -73 -45 0 -39 14 49 120 44 53 80 115 80 138 0 23 9 42 20 42 11 0 20 -16 20 -36z m4864 1 c16 -14 37 -18 46 -10 8 8 11 2 6 -15 -5 -16 -31 -31 -58 -32 -119 -3 -131 -7 -93 -30 29 -17 31 -28 12 -64 -21 -42 -20 -42 30 4 56 52 77 20 28 -42 -80 -100 -176 -39 -150 95 5 27 2 55 -7 60 -10 6 -23 -24 -30 -67 -18 -116 -40 -143 -75 -95 -23 31 -23 50 -3 100 13 33 29 76 36 95 14 41 209 42 258 1z m1095 -44 c12 -21 41 -41 66 -45 71 -10 75 -128 6 -159 -28 -13 -51 -35 -51 -50 0 -15 -13 -27 -30 -27 -35 0 -37 18 -11 89 24 61 10 106 -38 121 -50 16 -49 110 1 110 20 0 46 -17 57 -39z m-5738 -36 c2 -31 4 -30 17 4 13 34 16 34 28 5 7 -20 25 -29 43 -22 18 7 31 1 31 -14 0 -20 5 -21 24 -2 27 27 96 32 96 7 0 -23 -61 -74 -110 -91 -39 -15 -39 -16 5 -52 60 -48 57 -57 -24 -91 -88 -37 -149 -39 -115 -5 42 42 28 108 -30 134 -42 19 -48 29 -26 42 15 10 38 12 49 4 12 -7 5 12 -14 41 -43 65 -43 75 -5 75 17 0 31 -16 31 -35z m910 -38 c91 -96 94 -132 7 -86 -22 12 -48 43 -58 70 -24 62 -68 66 -49 5 8 -24 27 -56 42 -71 28 -29 10 -88 -34 -116 -38 -23 -51 18 -58 181 -2 38 -3 39 -24 3 -16 -28 -15 -42 1 -52 15 -9 5 -30 -28 -61 -65 -61 -84 -40 -43 47 18 38 33 77 33 87 0 88 126 84 211 -7z m3949 -69 c0 -21 -18 -56 -40 -78 -22 -22 -40 -50 -40 -62 0 -12 -11 -17 -25 -12 -14 5 -23 19 -20 32 3 12 -8 22 -25 22 -16 0 -30 9 -30 20 0 11 8 20 17 20 10 0 13 23 7 52 -7 40 4 63 47 98 l57 45 26 -50 c14 -27 26 -67 26 -87z m-4460 62 c6 27 29 53 50 57 34 7 35 3 12 -25 -24 -28 -20 -32 34 -32 34 0 67 -9 75 -21 18 -29 -28 -79 -73 -79 -21 0 -37 -7 -36 -15 12 -73 -2 -91 -42 -55 -22 20 -47 30 -55 22 -8 -8 6 -30 31 -49 25 -19 39 -41 32 -49 -30 -29 -62 -12 -93 51 -21 41 -33 52 -34 30 0 -19 -11 -35 -22 -35 -44 0 -9 88 40 100 l48 11 -56 44 c-34 27 -51 56 -44 74 9 25 22 20 66 -24 l55 -55 12 50z m4640 0 c0 13 39 19 100 16 96 -6 122 -20 80 -46 -11 -7 -20 -38 -20 -70 0 -32 -9 -63 -20 -70 -11 -7 -20 -3 -20 9 0 11 -18 3 -40 -19 -56 -56 -76 -50 -96 25 -22 82 -15 91 36 45 39 -36 42 -36 70 2 37 50 37 68 -1 68 -17 0 -25 -10 -18 -21 9 -15 -10 -17 -59 -8 l-72 13 0 -83 c0 -50 -8 -78 -20 -71 -11 7 -20 38 -20 70 0 32 -8 80 -19 107 -25 66 -8 77 62 42 35 -18 57 -22 57 -9z m480 20 c0 -11 18 -20 40 -20 47 0 48 -5 17 -65 -13 -25 -29 -58 -37 -75 -8 -16 -35 -33 -61 -37 -26 -4 -58 -22 -72 -40 -13 -18 -30 -26 -38 -18 -8 8 -2 30 13 50 26 32 25 33 -7 7 -44 -34 -63 -19 -46 35 13 41 71 76 71 42 0 -10 9 -19 20 -19 33 0 22 58 -19 99 -38 38 -38 39 15 47 97 15 104 14 104 -6z"/> <path d="M6690 11080 c-7 -11 -3 -20 9 -20 11 0 21 -9 21 -20 0 -11 -13 -20 -30 -20 -16 0 -30 -4 -30 -8 0 -5 -5 -23 -12 -40 -23 -60 50 -34 82 29 39 74 2 147 -40 79z"/> <path d="M4753 10907 c-25 -26 -13 -46 20 -33 27 10 31 5 20 -23 -14 -36 16 -91 49 -91 28 0 21 57 -14 111 -33 50 -51 59 -75 36z"/> <path d="M5700 10631 c-262 -55 -557 -209 -716 -373 -36 -37 -92 -95 -123 -128 -212 -219 -378 -799 -322 -1121 54 -311 324 -788 447 -789 8 0 50 -36 92 -80 42 -44 94 -80 117 -80 22 0 46 -13 52 -28 6 -16 89 -68 185 -115 l174 -87 232 2 c351 2 644 93 839 260 44 37 87 69 96 69 23 2 273 286 283 321 5 15 29 60 55 98 63 94 149 431 163 640 32 494 -256 1030 -647 1203 -53 24 -122 62 -152 84 -31 23 -76 42 -100 44 -25 1 -86 21 -136 45 -120 56 -365 72 -539 35z m540 -262 c378 -135 572 -295 728 -603 85 -169 117 -555 63 -766 -35 -138 -134 -381 -150 -370 -7 4 -26 -2 -42 -13 -24 -17 -23 -19 6 -10 61 20 39 -17 -90 -152 -193 -202 -215 -207 -215 -46 0 102 7 132 30 134 17 1 58 3 93 5 40 1 73 18 92 47 16 25 44 45 61 45 25 0 27 5 8 24 -18 18 -11 29 34 48 61 26 73 233 18 302 -11 13 -14 36 -6 50 7 14 -1 9 -19 -13 -31 -38 -31 -38 -31 0 0 58 -268 191 -320 159 -11 -7 -20 -2 -20 10 0 12 -9 17 -20 10 -11 -7 -20 -3 -20 9 0 12 -45 21 -105 21 -139 1 -170 21 -139 90 15 33 24 168 24 376 l0 325 -62 75 c-33 41 -71 68 -83 61 -12 -8 -15 -4 -7 10 27 44 -79 72 -170 45 -91 -27 -265 -175 -245 -207 7 -12 4 -16 -7 -9 -11 7 -33 -11 -48 -40 -22 -41 -23 -54 -3 -61 14 -5 25 -17 25 -28 0 -10 23 -52 50 -93 42 -61 50 -97 50 -214 0 -104 11 -161 41 -217 52 -97 53 -97 -153 -113 -113 -9 -178 -23 -190 -42 -15 -24 -17 -24 -18 0 0 20 -10 16 -35 -12 -19 -22 -45 -36 -58 -32 -13 5 -29 -1 -36 -13 -8 -12 -49 -21 -93 -21 -58 0 -93 -13 -128 -48 -30 -30 -51 -40 -57 -25 -6 13 -11 3 -11 -22 -1 -25 -9 -45 -18 -45 -24 0 -84 -134 -84 -186 0 -58 53 -134 94 -134 24 0 26 -6 9 -27 -24 -28 -11 -53 25 -53 12 0 9 9 -8 20 -26 17 -25 19 4 20 19 0 41 -13 50 -28 9 -16 72 -35 146 -45 l130 -17 6 -94 c14 -210 -37 -218 -246 -39 -149 127 -166 149 -245 328 l-85 192 0 256 c0 296 13 356 126 585 255 518 842 774 1354 591z m-200 -639 l0 -350 -55 0 -55 0 7 283 6 282 -46 -12 c-26 -7 -68 -19 -94 -26 -40 -11 -46 -6 -40 33 6 39 180 131 262 139 8 0 15 -156 15 -349z m470 -630 c-8 -13 -217 -20 -561 -20 -353 0 -549 7 -549 20 0 13 200 20 561 20 369 0 557 -7 549 -20z m-1304 -205 c16 -47 36 -101 44 -120 10 -24 5 -35 -16 -35 -16 0 -35 14 -41 30 -7 17 -26 30 -43 30 -17 0 -36 -13 -43 -30 -16 -44 -74 -39 -61 5 77 243 109 267 160 120z m370 -36 c-9 -154 -56 -158 -56 -4 0 65 6 124 14 132 29 30 48 -26 42 -128z m104 31 c0 -75 6 -88 45 -94 68 -9 44 -46 -30 -46 -66 0 -104 127 -66 224 20 54 51 4 51 -84z m176 -31 c-9 -154 -56 -158 -56 -4 0 65 6 124 14 132 29 30 48 -26 42 -128z m899 106 c5 -16 -11 -25 -43 -25 -61 0 -69 -31 -12 -46 22 -6 40 -20 40 -32 0 -12 -18 -22 -40 -22 -22 0 -40 -9 -40 -20 0 -11 23 -20 50 -20 31 0 50 -11 50 -30 0 -22 -22 -30 -80 -30 l-80 0 0 119 c0 107 4 119 45 127 67 13 101 7 110 -21z m-1280 -10 c-5 -14 -34 -25 -64 -25 -63 0 -104 -47 -85 -97 16 -41 94 -44 94 -3 0 17 14 30 31 30 68 0 26 -109 -45 -116 -111 -11 -179 97 -125 197 24 46 209 59 194 14z m614 -19 c60 -86 -13 -196 -128 -196 l-61 0 0 120 0 120 79 0 c59 0 87 -11 110 -44z m200 -66 c42 -123 28 -165 -30 -90 l-39 50 -39 -50 c-71 -92 -69 -39 9 175 20 56 64 19 99 -85z m247 86 c79 -79 -10 -226 -130 -212 -53 6 -56 11 -62 121 l-5 115 86 0 c48 0 98 -11 111 -24z m-447 -316 c6 -22 16 -58 22 -80 8 -27 2 -40 -18 -40 -17 0 -36 18 -43 40 -14 45 -69 53 -106 16 -39 -39 -32 -444 8 -478 71 -59 127 160 58 229 -45 45 -38 53 52 53 67 0 80 -6 70 -32 -7 -17 -12 -91 -12 -165 l0 -133 -106 -6 c-156 -8 -180 26 -191 267 -10 247 11 300 134 338 122 37 119 37 132 -9z m-384 -261 c35 -169 67 -274 86 -285 48 -27 13 -54 -71 -54 -80 0 -122 27 -71 47 52 20 13 93 -51 93 -59 0 -84 -61 -38 -90 35 -22 1 -50 -60 -50 -66 0 -95 30 -53 54 16 9 52 121 82 256 30 132 59 256 64 276 23 83 58 6 112 -247z m655 241 c0 -11 -9 -20 -20 -20 -35 0 -26 -499 10 -513 54 -21 9 -47 -81 -47 -84 0 -114 22 -69 50 12 7 20 117 20 261 0 153 -8 249 -20 249 -11 0 -20 9 -20 20 0 11 41 20 90 20 50 0 90 -9 90 -20z"/> <path d="M5960 8871 c0 -58 7 -71 41 -71 79 0 72 121 -8 136 -26 5 -33 -9 -33 -65z"/> <path d="M6400 8870 c0 -74 46 -96 96 -46 32 32 30 47 -7 85 -54 53 -89 38 -89 -39z"/> <path d="M5580 8395 c0 -14 -6 -59 -13 -100 -11 -68 -8 -75 33 -75 41 0 44 7 33 75 -7 41 -13 86 -13 100 0 14 -9 25 -20 25 -11 0 -20 -11 -20 -25z"/> <path d="M7120 8291 c-23 -38 -88 -110 -143 -160 -66 -59 -92 -94 -74 -100 167 -59 258 -97 268 -112 6 -11 26 -19 43 -19 17 0 76 -27 131 -61 116 -72 103 -74 214 46 98 108 88 148 -54 208 -36 15 -83 45 -103 65 -21 21 -70 60 -110 87 -39 26 -67 54 -60 60 6 7 -7 21 -29 33 -34 19 -46 12 -83 -47z"/> <path d="M4453 8230 c-95 -49 -205 -114 -243 -144 l-69 -55 57 -61 c31 -33 53 -70 48 -83 -4 -13 19 -39 52 -59 33 -20 63 -51 66 -70 5 -28 33 -18 166 63 88 54 212 117 276 141 64 24 109 51 100 59 -9 8 -56 49 -106 89 -49 41 -109 104 -131 141 l-42 68 -174 -89z"/> <path d="M2209 8058 c-15 -23 -137 -34 -174 -15 -26 14 -39 10 -48 -13 -7 -19 -30 -30 -55 -27 -55 8 -172 -39 -219 -88 -26 -27 -53 -34 -92 -25 -46 10 -58 4 -67 -32 -8 -28 -22 -39 -41 -32 -16 6 -45 -6 -64 -27 -19 -22 -42 -39 -51 -39 -70 0 -398 -446 -398 -542 0 -13 -12 -34 -26 -46 -56 -47 -154 -515 -123 -588 7 -19 18 -65 23 -104 6 -38 19 -81 30 -94 11 -13 14 -33 7 -44 -6 -10 -2 -25 9 -32 12 -7 16 -31 10 -52 -18 -53 6 -86 41 -57 23 19 28 8 25 -64 -3 -87 68 -277 103 -277 27 0 160 -140 134 -141 -13 0 -2 -18 23 -39 25 -21 48 -45 50 -54 2 -9 10 -14 17 -12 7 3 47 -26 87 -63 41 -37 103 -80 137 -94 35 -14 82 -46 105 -71 24 -26 66 -46 94 -46 57 0 89 -31 49 -47 -14 -5 8 -11 49 -11 40 -1 79 -10 85 -20 16 -26 116 -41 151 -22 17 9 64 5 109 -11 44 -15 84 -21 90 -13 6 8 56 15 111 16 225 5 350 14 350 27 0 25 139 80 170 68 22 -8 27 -2 18 22 -7 18 -5 30 6 27 38 -12 164 73 175 119 8 31 31 50 73 58 39 8 68 30 79 60 10 26 29 47 44 47 14 0 47 34 74 75 27 41 58 84 70 95 46 44 126 163 141 210 8 28 32 84 53 126 21 42 43 123 49 180 5 57 18 112 28 122 11 11 10 33 -1 55 -14 25 -11 58 11 109 27 66 27 80 0 134 -16 33 -30 99 -30 147 0 48 -8 87 -17 87 -10 0 -33 41 -52 90 -19 50 -43 90 -53 90 -10 0 -18 14 -18 30 0 17 -8 46 -19 65 -10 19 -24 53 -31 74 -9 31 -16 34 -29 13 -11 -18 -20 -20 -30 -4 -7 12 -8 31 0 43 7 11 2 34 -12 50 -13 16 -17 29 -8 29 9 0 -2 18 -26 39 -23 22 -54 56 -68 77 -15 21 -81 66 -147 101 -66 35 -109 63 -95 63 14 0 25 9 25 20 0 11 -13 20 -29 20 -16 0 -38 16 -49 35 -10 19 -25 29 -31 22 -7 -7 -64 14 -126 45 -62 32 -127 58 -145 58 -42 0 -140 46 -140 66 0 9 -33 10 -73 2 -63 -12 -72 -9 -61 19 7 18 11 33 8 33 -2 0 -33 -8 -68 -18 -34 -10 -69 -12 -76 -5 -18 17 -110 18 -121 1z m326 -245 c25 -2 45 -9 45 -16 0 -7 72 -38 160 -68 88 -31 160 -64 160 -75 0 -10 13 -13 30 -7 16 6 27 4 25 -5 -3 -9 43 -53 102 -98 106 -79 229 -228 265 -320 11 -28 27 -41 41 -32 14 9 18 5 9 -8 -7 -12 11 -70 42 -128 192 -370 105 -864 -210 -1191 -169 -175 -203 -167 -205 52 0 62 -12 140 -26 172 -19 43 -20 79 -5 135 15 55 13 99 -5 161 -29 95 -30 117 -12 210 21 102 -78 185 -221 185 -124 0 -170 14 -170 50 0 15 -7 30 -15 35 -8 5 -5 6 8 3 57 -13 71 588 16 693 -44 86 -171 198 -225 198 -85 1 -279 -116 -248 -150 8 -8 3 -9 -10 -2 -60 35 -164 -201 -105 -238 63 -38 119 -172 119 -284 0 -63 10 -150 22 -193 27 -98 9 -111 -148 -112 -204 0 -281 -56 -318 -230 -9 -44 -20 -89 -23 -100 -33 -102 -34 -170 -3 -230 21 -41 24 -59 8 -49 -18 11 -21 6 -12 -19 8 -19 6 -29 -4 -23 -27 16 -41 -64 -42 -233 0 -175 -11 -191 -92 -132 -274 199 -487 766 -409 1091 13 55 26 113 29 128 2 15 38 93 79 173 41 80 68 156 61 168 -8 13 -5 17 7 9 12 -7 41 18 65 56 162 263 642 467 1030 438 77 -6 160 -12 185 -14z m-135 -563 c0 -181 0 -337 1 -345 0 -8 -23 -18 -50 -21 l-51 -7 0 284 0 284 -45 -14 c-120 -37 -135 -37 -135 5 0 35 180 131 265 142 8 1 15 -146 15 -328z m473 -636 c7 -8 -242 -12 -555 -10 l-568 5 530 10 c611 13 575 13 593 -5z m-933 -174 c0 -11 -18 -20 -40 -20 -55 0 -51 -55 5 -66 l45 -9 -44 -14 c-24 -9 -47 -34 -50 -58 -14 -100 -65 -45 -66 72 l0 115 75 0 c41 0 75 -9 75 -20z m230 -13 c50 -50 31 -149 -35 -186 -114 -64 -231 84 -143 181 42 47 134 49 178 5z m227 -25 c3 -26 -5 -55 -20 -64 -21 -13 -22 -21 -2 -41 14 -14 25 -37 25 -51 0 -45 -40 -28 -65 27 l-24 53 -11 -47 c-24 -101 -60 -65 -60 61 l0 122 75 -6 c62 -5 76 -14 82 -54z m223 29 c0 -18 -25 -31 -65 -35 -120 -11 -88 -128 34 -126 29 0 49 26 73 90 44 120 85 125 124 16 16 -47 36 -102 44 -121 10 -25 5 -35 -18 -35 -19 0 -38 14 -45 30 -15 39 -79 39 -95 -1 -6 -17 -23 -29 -37 -28 -52 7 -71 -2 -81 -41 -13 -50 -54 -53 -54 -3 0 20 -18 53 -40 73 -49 44 -52 124 -7 173 41 45 167 51 167 8z m-551 -386 c16 -73 -15 -89 -49 -25 -51 96 -140 52 -140 -69 0 -116 20 -149 60 -101 40 48 60 35 60 -39 0 -73 -28 -110 -47 -61 -7 17 -26 30 -42 30 -44 0 -44 -196 -1 -213 71 -27 30 -67 -70 -67 -76 0 -100 7 -100 30 0 17 9 30 20 30 12 0 20 97 20 250 0 153 -8 250 -20 250 -11 0 -20 9 -20 20 0 11 56 20 129 20 71 0 135 10 142 22 19 30 42 -1 58 -77z m316 12 c29 -34 35 -81 35 -259 0 -251 -23 -298 -150 -298 -128 0 -150 46 -150 307 0 191 6 232 35 257 76 66 170 63 230 -7z m404 -1 c41 -59 40 -193 -2 -239 -31 -34 -31 -40 0 -74 18 -20 33 -64 33 -99 0 -42 13 -70 41 -84 22 -12 35 -31 28 -41 -41 -67 -169 45 -169 149 0 46 -12 77 -35 90 -33 19 -33 21 1 46 58 43 41 244 -21 252 -49 7 -73 -476 -25 -506 45 -28 15 -50 -70 -50 -67 0 -90 8 -90 30 0 17 9 30 20 30 12 0 20 97 20 250 0 153 -8 250 -20 250 -11 0 -20 9 -20 20 0 45 275 23 309 -24z"/> <path d="M2043 6402 c-47 -29 -20 -112 37 -112 37 0 52 12 57 48 6 41 -23 81 -57 81 -5 0 -22 -7 -37 -17z"/> <path d="M2218 6017 c-31 -59 -13 -436 23 -457 70 -44 98 22 99 233 0 249 -54 350 -122 224z"/> <path d="M9269 8041 c11 -17 -28 -32 -198 -73 -32 -8 -81 -26 -110 -41 -28 -15 -62 -27 -75 -27 -13 0 -35 -17 -50 -37 -14 -20 -54 -51 -87 -69 -67 -34 -294 -267 -391 -400 -98 -135 -203 -419 -183 -496 6 -22 -1 -62 -15 -88 -24 -45 -16 -176 32 -490 6 -38 12 -81 13 -94 1 -13 8 -20 17 -15 8 5 21 -20 29 -55 14 -64 47 -136 71 -156 20 -17 80 -140 68 -140 -7 0 47 -59 118 -132 71 -72 132 -150 136 -172 4 -28 34 -50 96 -70 50 -17 113 -47 142 -68 52 -37 290 -121 458 -163 177 -43 691 -3 713 57 6 14 39 32 73 39 68 15 92 28 232 119 149 97 293 215 339 280 124 171 181 275 232 420 31 88 64 169 72 180 22 28 19 307 -3 366 -12 31 -12 58 1 73 20 24 -2 103 -113 401 -46 124 -130 252 -240 369 -46 48 -79 96 -74 105 6 9 -12 25 -39 35 -27 10 -55 28 -62 39 -7 11 -57 45 -111 76 -59 33 -101 71 -104 96 -5 33 -27 43 -121 54 -63 8 -134 25 -157 37 -73 39 -731 77 -709 40z m411 -220 c240 -19 417 -67 521 -142 42 -29 59 -34 61 -15 1 19 4 18 13 -3 6 -16 80 -99 164 -184 297 -300 445 -821 324 -1145 -24 -63 -38 -123 -32 -133 6 -11 4 -19 -5 -19 -9 0 -39 -47 -66 -105 -77 -162 -373 -435 -472 -435 -24 0 4 267 29 276 13 4 37 32 52 63 24 45 39 53 88 46 126 -19 283 157 283 315 0 110 -126 267 -233 291 -31 7 -83 21 -115 31 -71 22 -77 22 -64 1 6 -9 -3 -16 -19 -16 -20 0 -23 7 -8 24 36 44 -82 109 -197 109 -164 0 -155 -25 -147 398 l7 377 -100 102 c-63 66 -116 103 -145 103 -66 0 -216 -77 -241 -124 -14 -26 -35 -36 -60 -30 -21 6 -33 2 -27 -8 6 -10 -8 -46 -32 -80 -45 -62 -32 -158 21 -158 11 0 18 -7 16 -15 -3 -8 10 -37 27 -65 20 -31 36 -113 43 -212 5 -89 22 -181 36 -204 37 -60 19 -69 -170 -84 -142 -11 -182 -23 -263 -77 -53 -34 -117 -63 -142 -63 -54 0 -192 -115 -174 -145 8 -12 4 -15 -9 -8 -33 21 -64 -53 -64 -156 0 -127 150 -291 266 -291 l74 0 0 -190 c0 -224 -4 -226 -154 -85 -699 656 -457 1747 449 2025 181 55 168 54 465 31z m0 -591 l0 -350 -55 0 -55 0 7 280 c3 169 -2 280 -13 280 -11 0 -52 -14 -93 -31 l-74 -31 7 54 c5 48 150 129 261 146 8 1 15 -155 15 -348z m460 -610 c0 -13 -195 -18 -555 -15 l-555 4 550 11 c303 6 552 13 555 15 3 3 5 -4 5 -15z m-1333 -283 c2 -83 -4 -107 -27 -107 -32 0 -54 164 -31 226 23 58 56 -9 58 -119z m167 48 l44 -75 1 75 c1 64 38 113 42 55 16 -219 -21 -278 -91 -147 l-40 74 -10 -67 c-18 -122 -60 -96 -60 38 0 148 44 166 114 47z m306 55 c0 -11 -13 -20 -30 -20 -23 0 -30 -24 -30 -100 0 -76 -7 -100 -30 -100 -23 0 -30 24 -30 100 0 76 -7 100 -30 100 -16 0 -30 9 -30 20 0 11 41 20 90 20 50 0 90 -9 90 -20z m180 0 c0 -11 -22 -20 -50 -20 -60 0 -67 -39 -10 -54 22 -6 40 -19 40 -28 0 -10 -18 -18 -40 -18 -22 0 -40 -9 -40 -20 0 -11 23 -20 50 -20 32 0 50 -11 50 -31 0 -24 -18 -30 -75 -25 -76 6 -114 110 -77 208 12 32 152 39 152 8z m80 -69 c0 -75 6 -89 43 -95 81 -11 69 -59 -13 -52 l-75 6 -7 115 c-7 93 -2 115 22 115 22 0 30 -23 30 -89z m260 69 c0 -11 -18 -20 -40 -20 -55 0 -51 -55 5 -66 l45 -9 -45 -15 c-25 -8 -45 -22 -45 -31 0 -9 20 -19 45 -23 69 -9 45 -45 -35 -52 l-70 -6 0 121 0 121 70 0 c39 0 70 -9 70 -20z m420 0 c0 -11 -13 -20 -30 -20 -23 0 -30 -24 -30 -100 0 -76 -7 -100 -30 -100 -23 0 -30 25 -30 103 l0 102 -62 -12 c-35 -7 -79 -13 -98 -13 -45 0 -68 -56 -38 -93 13 -15 44 -27 70 -27 29 0 48 -12 48 -30 0 -20 -20 -30 -59 -30 -105 0 -168 107 -112 191 34 52 371 78 371 29z m223 -13 c77 -69 14 -207 -93 -207 -58 0 -130 64 -130 116 0 107 142 165 223 91z m-663 -307 c0 -11 53 -20 119 -20 65 0 124 9 131 20 24 39 45 19 66 -64 32 -123 -8 -167 -50 -56 -54 144 -86 74 -86 -190 0 -153 8 -250 20 -250 11 0 20 -13 20 -30 0 -22 -23 -30 -89 -30 -90 0 -139 31 -82 52 50 20 46 514 -4 504 -19 -3 -44 -26 -55 -51 -39 -90 -68 -23 -37 90 12 45 47 63 47 25z m-242 -197 l72 -167 6 134 c5 105 -2 143 -28 172 -33 37 -31 38 52 38 84 0 85 -1 52 -38 -30 -33 -34 -76 -30 -295 6 -325 -16 -333 -136 -47 -120 286 -132 292 -115 50 8 -110 22 -203 32 -207 78 -30 2 -60 -153 -61 -136 -1 -170 5 -170 29 0 16 9 29 20 29 12 0 20 97 20 250 0 153 -8 250 -20 250 -11 0 -20 9 -20 21 0 13 63 18 173 15 l173 -6 72 -167z"/> <path d="M10310 6393 c-43 -32 -24 -113 27 -113 41 0 83 37 83 73 0 44 -70 69 -110 40z"/> <path d="M9285 6065 c-18 -6 -25 -76 -25 -255 0 -179 7 -249 25 -255 66 -23 75 8 75 255 0 247 -9 278 -75 255z"/> <path d="M3949 7908 c-68 -46 -137 -113 -310 -301 -49 -54 -49 -80 1 -107 22 -12 40 -39 40 -61 0 -21 7 -39 15 -39 9 0 17 -55 18 -121 4 -162 13 -165 122 -38 122 142 237 256 330 327 98 74 73 173 -75 302 -13 11 -32 36 -43 56 -18 33 -25 32 -98 -18z"/> <path d="M6659 7888 c-61 -37 -176 -84 -255 -104 -180 -46 -192 -58 -71 -73 268 -34 562 -130 764 -249 128 -76 119 -76 153 3 15 36 50 96 79 134 28 38 51 76 51 85 0 30 -550 282 -600 274 -5 -1 -60 -32 -121 -70z"/> <path d="M7703 7933 c-13 -15 -18 -32 -12 -37 6 -6 -11 -17 -38 -23 -27 -7 -48 -24 -48 -38 3 -65 -8 -93 -37 -99 -20 -4 26 -52 132 -135 90 -71 212 -182 270 -247 103 -113 150 -131 150 -57 0 18 36 88 79 153 92 138 95 150 42 150 -21 0 -43 8 -49 17 -6 10 -59 42 -117 72 -59 29 -158 102 -220 162 -126 122 -122 119 -152 82z"/> <path d="M4741 7810 c-271 -135 -305 -164 -260 -226 16 -22 82 -117 147 -212 136 -198 135 -198 202 -92 44 70 55 77 88 56 48 -29 134 21 163 96 17 46 27 49 104 40 79 -10 89 -6 143 59 82 101 45 122 -89 49 -110 -59 -208 -78 -195 -38 9 27 224 102 391 137 159 34 158 51 -8 80 -126 22 -350 117 -377 161 -19 31 -42 23 -309 -110z"/> <path d="M7410 7510 c-44 -59 -87 -109 -95 -109 -46 -3 -1 -67 100 -142 167 -125 365 -334 477 -502 l98 -147 13 192 c6 106 23 225 36 265 27 82 6 109 -269 346 -277 238 -260 233 -360 97z"/> <path d="M4128 7406 c-65 -74 -166 -185 -224 -248 -83 -89 -104 -124 -95 -161 6 -26 17 -74 25 -107 7 -33 13 -107 13 -164 0 -57 7 -100 15 -95 24 15 32 -56 13 -128 -31 -115 -4 -91 99 90 111 196 140 220 150 123 3 -36 15 -64 26 -62 33 6 35 62 5 123 -28 55 -26 60 73 179 123 147 118 146 161 34 63 -166 193 -227 176 -83 -8 75 -3 92 36 120 52 36 34 100 -53 184 -23 23 -80 106 -126 185 -110 188 -136 189 -294 10z"/> <path d="M5453 7507 c-7 -8 -13 -30 -13 -50 0 -41 88 -53 111 -16 26 43 -61 102 -98 66z"/> <path d="M5305 7387 c-14 -6 -25 -19 -25 -30 0 -26 81 -13 82 13 1 23 -23 30 -57 17z"/> <path d="M6084 7197 c5 -15 34 -30 65 -34 39 -4 53 2 47 20 -5 15 -34 30 -65 34 -39 4 -53 -2 -47 -20z"/> <path d="M4322 6548 l-45 -52 41 -44 c49 -52 56 -102 12 -84 -16 7 -44 18 -62 25 -24 9 -30 3 -25 -25 4 -23 28 -41 57 -45 68 -9 100 -39 100 -92 0 -118 237 -81 289 44 31 77 -88 120 -141 50 -24 -31 -30 -31 -47 -5 -11 17 -13 32 -5 35 22 8 2 213 -23 230 -45 29 -107 14 -151 -37z"/> <path d="M7860 6449 c-36 -42 5 -129 60 -129 49 0 69 42 52 110 -15 57 -73 67 -112 19z"/> <path d="M3893 6303 c-37 -40 -43 -115 -15 -189 47 -122 268 45 281 211 3 34 -232 15 -266 -22z"/> <path d="M7953 6007 c-25 -25 -13 -87 17 -87 17 0 30 8 30 18 0 10 5 33 12 50 12 32 -32 46 -59 19z"/> <path d="M3672 5910 c-32 -49 -29 -90 7 -90 16 0 47 120 34 134 -4 4 -23 -16 -41 -44z"/> <path d="M3945 5907 c-37 -15 7 -87 53 -87 45 0 90 50 73 79 -14 22 -82 26 -126 8z"/> <path d="M7920 5730 c-29 -36 -13 -90 28 -90 33 0 62 68 42 100 -17 28 -41 25 -70 -10z"/> <path d="M3512 5651 c-17 -39 -39 -71 -51 -71 -12 0 -21 -16 -22 -35 0 -19 -36 -57 -80 -84 -117 -73 -126 -153 -67 -618 l13 -106 73 13 c39 7 79 25 87 39 8 15 65 33 126 40 88 11 110 21 101 44 -7 17 -12 45 -13 64 0 31 -2 31 -26 0 -59 -79 -129 374 -97 629 19 153 0 191 -44 85z"/> <path d="M8300 5710 c1 -11 9 -56 20 -100 26 -112 9 -156 -56 -144 -75 14 -144 -17 -144 -67 0 -30 10 -39 35 -32 94 27 209 36 197 16 -7 -11 -25 -127 -41 -257 -15 -130 -30 -248 -34 -264 -7 -25 233 -142 292 -142 26 0 79 131 63 157 -15 24 26 269 49 292 44 44 19 -301 -31 -431 -11 -30 33 -49 264 -119 107 -32 146 -5 146 99 0 40 18 138 40 217 50 182 50 185 -8 185 -53 0 -214 64 -264 104 -17 14 -58 50 -92 80 -33 30 -80 61 -103 68 -54 17 -178 140 -266 263 -37 52 -67 86 -67 75z"/> <path d="M3809 5632 c-21 -16 -32 -35 -24 -44 21 -21 120 28 105 52 -17 27 -35 25 -81 -8z"/> <path d="M4172 5555 c-60 -171 -156 -367 -166 -340 -13 34 -46 32 -46 -3 0 -31 106 -63 140 -42 11 7 20 29 20 50 0 131 164 152 194 25 15 -65 25 -75 77 -77 91 -3 91 0 11 197 -41 102 -81 210 -89 240 -25 100 -97 74 -141 -50z m75 -100 c20 -74 15 -95 -24 -95 -54 0 -61 16 -36 81 26 71 44 75 60 14z"/> <path d="M4488 5642 c-28 -29 -1 -62 52 -62 l60 0 0 -208 0 -209 65 4 65 3 6 205 5 205 60 0 c38 0 59 10 59 29 0 26 -347 57 -372 33z"/> <path d="M6675 5644 c-138 -4 -175 -12 -175 -35 0 -19 21 -29 60 -29 l60 0 0 -210 0 -210 72 0 72 0 -4 145 c-8 274 -8 275 60 275 39 0 60 10 60 29 0 40 -9 42 -205 35z"/> <path d="M7042 5635 c-194 -100 -172 -385 35 -452 241 -78 443 139 340 365 -44 97 -258 147 -375 87z m225 -60 c71 -53 67 -241 -8 -316 -124 -124 -286 96 -196 267 41 78 134 100 204 49z"/> <path d="M7564 5629 c-96 -68 -53 -207 86 -272 82 -38 92 -111 18 -129 -43 -11 -63 -4 -93 33 -31 39 -41 42 -56 18 -72 -112 157 -163 262 -58 88 88 45 196 -106 264 -80 37 -97 82 -40 112 39 21 125 -4 125 -36 0 -39 35 -21 47 23 20 78 -150 109 -243 45z"/> <path d="M4900 5399 l0 -241 64 7 c64 7 64 8 59 111 -7 130 2 130 76 -2 53 -94 68 -106 131 -111 87 -5 87 -1 0 120 -76 106 -86 137 -41 137 34 0 71 60 71 116 0 74 -63 104 -217 104 l-143 0 0 -241z m216 177 c37 -37 29 -112 -15 -135 -67 -36 -81 -24 -81 69 0 94 40 122 96 66z"/> <path d="M5360 5402 l0 -237 61 3 62 3 3 234 4 235 -65 0 -65 0 0 -238z"/> <path d="M5580 5404 l0 -236 131 4 c200 6 301 159 155 235 -52 27 -52 28 -12 50 135 72 54 183 -134 183 l-140 0 0 -236z m196 172 c33 -33 30 -67 -7 -105 -51 -50 -69 -37 -69 49 0 82 29 103 76 56z m20 -242 c7 -61 -25 -114 -68 -114 -20 0 -28 27 -28 91 0 111 84 131 96 23z"/> <path d="M6016 5465 c10 -255 98 -343 289 -286 106 32 130 82 138 286 7 170 6 175 -38 175 -43 0 -45 -7 -45 -169 0 -189 -22 -231 -121 -231 -82 0 -103 54 -95 241 l6 159 -70 0 -70 0 6 -175z"/> <path d="M3100 5284 c-16 -6 -49 -29 -73 -52 -73 -71 -105 -93 -177 -123 -79 -33 -87 -70 -41 -199 16 -44 30 -113 30 -154 1 -114 31 -175 79 -162 22 6 39 21 36 33 -2 14 18 21 51 17 30 -3 55 3 55 13 0 10 32 24 70 32 78 14 79 17 47 182 -12 66 -28 187 -35 271 -10 122 -18 150 -42 142z"/> <path d="M7905 5101 c-27 -43 -6 -68 43 -49 38 14 43 88 7 88 -14 0 -36 -18 -50 -39z"/> <path d="M8105 5065 c-25 -4 -45 -21 -45 -37 0 -26 87 -22 119 5 19 17 -32 39 -74 32z"/> <path d="M7580 4789 c0 -21 15 -30 43 -25 64 9 71 56 9 56 -34 0 -52 -11 -52 -31z"/> <path d="M3674 4728 c-7 -8 -41 -13 -74 -12 -33 1 -60 -7 -60 -18 0 -11 -11 -17 -25 -14 -36 8 -155 -45 -155 -69 0 -32 134 -378 180 -465 112 -212 139 -242 230 -258 95 -18 289 -79 348 -111 58 -31 53 -3 -14 79 -31 39 -68 99 -82 134 -31 75 -113 162 -91 95 10 -31 8 -33 -8 -10 -29 42 8 103 52 87 31 -12 32 -9 8 20 -16 19 -39 34 -52 34 -65 0 -197 305 -187 434 6 72 -32 112 -70 74z"/> <path d="M7860 4724 c0 -20 114 -63 129 -49 6 6 1 23 -12 38 -23 29 -117 38 -117 11z"/> <path d="M8224 4645 c-10 -19 -24 -58 -31 -86 -27 -117 -75 -205 -98 -182 -36 36 -102 29 -87 -9 7 -17 12 -40 12 -52 0 -11 14 -15 30 -9 66 25 -1 -114 -156 -324 l-78 -107 57 11 c176 33 224 38 291 34 77 -4 130 50 119 122 -3 18 18 50 45 72 27 21 68 83 89 137 22 54 58 146 81 204 l43 106 -70 29 c-38 16 -79 29 -91 29 -12 0 -48 14 -80 30 -53 28 -60 27 -76 -5z"/> <path d="M3160 4571 c-39 -12 -79 -27 -90 -34 -12 -8 -50 -12 -87 -9 -94 6 -94 0 17 -281 55 -140 100 -264 100 -274 0 -59 62 -88 146 -69 46 10 127 16 179 12 109 -7 111 -2 49 99 -57 92 -143 286 -201 451 l-43 125 -70 -20z"/> <path d="M8617 4535 c-17 -14 -42 -65 -56 -115 -14 -49 -65 -173 -114 -275 -49 -101 -90 -190 -93 -197 -2 -6 34 -15 81 -18 46 -4 100 -22 118 -40 24 -24 52 -30 94 -22 127 26 147 57 296 462 47 127 47 130 -13 130 -33 0 -50 11 -50 33 0 27 -17 30 -100 22 -75 -7 -100 -2 -100 18 0 34 -23 34 -63 2z"/> <path d="M4029 4372 c-46 -34 -22 -70 26 -40 37 24 57 68 30 68 -9 0 -35 -13 -56 -28z"/> <path d="M7628 4289 c-18 -27 -28 -56 -21 -63 17 -17 93 54 93 87 0 43 -36 31 -72 -24z"/> <path d="M4261 4239 c-170 -92 -176 -104 -87 -162 200 -129 346 -107 314 49 -11 55 -10 56 57 44 53 -10 72 -6 81 18 15 37 -35 92 -82 92 -19 0 -65 4 -104 9 -51 6 -100 -7 -179 -50z"/> <path d="M4605 4068 c-36 -28 -65 -63 -65 -77 0 -14 -19 -50 -42 -79 -24 -30 -38 -59 -32 -64 18 -18 84 34 126 99 23 35 57 88 77 118 44 69 21 70 -64 3z"/> <path d="M4831 3853 c14 -95 -6 -112 -136 -113 -30 0 -55 -9 -55 -20 0 -11 35 -20 78 -20 42 0 106 -6 141 -13 l63 -12 -14 107 c-7 60 -22 119 -33 133 -39 50 -57 24 -44 -62z"/> <path d="M4684 3865 c3 -19 23 -38 43 -42 31 -6 33 -1 14 35 -27 51 -67 56 -57 7z"/> <path d="M7519 3849 c-43 -46 -43 -49 -7 -49 112 1 159 42 91 79 -30 15 -47 9 -84 -30z"/> <path d="M4287 3810 c-31 -80 89 -141 188 -96 l75 35 -85 6 c-59 5 -91 19 -106 46 -24 47 -56 50 -72 9z"/> <path d="M8050 3780 c-7 -11 4 -20 24 -20 30 -1 31 -4 6 -20 -16 -11 -82 -20 -145 -20 -63 0 -115 -7 -115 -15 0 -29 -119 -68 -164 -54 -41 13 -43 11 -18 -18 23 -29 22 -33 -13 -33 -22 0 -51 -13 -65 -30 -14 -16 -38 -30 -53 -30 -16 0 -33 -13 -40 -30 -6 -16 -19 -25 -28 -20 -9 6 -23 0 -31 -13 -9 -14 -6 -18 9 -9 13 8 23 5 23 -6 0 -25 -40 -51 -80 -51 -16 -1 -39 -21 -50 -46 -11 -25 -34 -50 -51 -55 -17 -6 -57 -50 -88 -100 -31 -49 -64 -84 -74 -78 -9 6 -17 -1 -17 -14 0 -13 -22 -54 -50 -90 -27 -36 -50 -75 -50 -87 0 -12 -23 -67 -50 -121 -28 -55 -55 -146 -60 -204 -6 -57 -20 -110 -32 -117 -16 -10 -16 -26 0 -56 18 -32 16 -58 -5 -109 -24 -57 -24 -77 -1 -133 16 -36 28 -99 28 -141 0 -42 13 -86 30 -100 17 -14 30 -37 30 -53 0 -26 37 -104 60 -127 27 -27 60 -104 60 -139 0 -21 9 -44 20 -51 11 -7 20 4 21 24 1 55 34 -10 43 -82 3 -31 31 -84 61 -117 30 -32 55 -67 55 -77 0 -10 13 -18 29 -18 46 0 216 -115 187 -126 -17 -6 -13 -15 14 -25 22 -9 51 -31 64 -48 18 -23 25 -24 25 -5 1 19 18 14 54 -15 29 -23 114 -60 189 -83 75 -23 146 -54 159 -69 15 -18 43 -23 84 -15 35 7 56 4 50 -6 -16 -26 248 -31 279 -5 16 14 62 17 116 10 54 -7 90 -4 90 7 0 11 27 20 61 20 69 0 181 51 206 95 12 20 36 25 80 17 53 -10 67 -4 83 33 11 25 29 46 40 46 140 10 510 444 510 597 0 19 14 38 30 45 17 6 30 27 30 45 0 19 9 43 19 53 73 73 87 689 16 689 -10 0 -12 17 -6 38 7 21 3 45 -9 52 -11 7 -15 21 -9 32 6 10 6 37 -2 61 -10 33 -17 36 -31 15 -12 -19 -18 -6 -20 42 -1 39 -4 79 -6 90 -8 55 -89 170 -180 257 -56 53 -91 91 -77 84 14 -8 25 -8 25 -2 0 14 -86 101 -100 101 -6 0 -38 26 -70 57 -33 32 -97 74 -142 95 -45 20 -105 61 -134 90 -29 29 -65 48 -80 42 -15 -6 -40 -2 -56 8 -21 13 -22 17 -2 18 15 0 22 7 16 17 -6 9 -38 12 -71 7 -41 -6 -64 1 -72 20 -8 22 -40 28 -131 23 -85 -4 -135 3 -169 26 -28 18 -49 22 -49 10 0 -30 -157 -20 -169 11 -12 31 -44 34 -61 6z m360 -273 c99 -9 206 -15 237 -14 31 1 47 -5 35 -12 -12 -7 26 -36 83 -65 99 -49 396 -256 367 -256 -8 0 20 -36 60 -80 107 -115 154 -194 197 -330 21 -66 46 -131 56 -144 10 -12 15 -35 13 -50 -3 -14 5 -62 18 -106 61 -208 -15 -513 -204 -815 -145 -234 -352 -358 -352 -212 0 22 -13 64 -29 95 -21 41 -25 84 -13 169 8 62 12 113 8 113 -4 0 4 13 18 28 14 15 31 25 38 21 25 -15 16 205 -11 281 -26 72 -25 83 4 105 24 18 27 31 11 47 -25 25 -73 5 -56 -23 7 -10 -232 -16 -563 -13 -361 2 -576 11 -580 24 -5 13 188 18 558 15 533 -5 568 -3 615 34 41 32 43 38 12 33 -20 -3 -58 16 -84 41 -39 40 -67 47 -179 47 l-134 0 16 55 c8 30 19 200 23 377 l8 323 -66 85 c-36 48 -90 104 -120 126 l-53 40 -110 -45 c-60 -24 -125 -62 -145 -83 -19 -21 -44 -38 -56 -38 -12 0 -39 -36 -60 -79 -42 -88 -31 -181 22 -181 18 0 27 -6 20 -13 -7 -7 5 -37 27 -68 29 -41 39 -88 39 -185 0 -71 13 -165 28 -210 37 -102 34 -104 -136 -104 -155 -1 -244 -33 -239 -88 2 -21 -7 -31 -23 -25 -33 13 -50 -28 -50 -117 0 -37 -9 -73 -20 -80 -52 -32 -11 -238 54 -277 25 -14 24 -23 -6 -55 -35 -39 -44 -193 -13 -217 27 -20 31 -261 4 -261 -30 0 -337 224 -338 246 -1 9 -27 54 -58 100 -53 79 -74 116 -166 300 -92 180 -89 533 4 783 154 410 724 831 1059 780 28 -4 131 -14 230 -22z m-24 -612 l-4 -345 -51 -6 -51 -7 0 292 0 292 -72 -31 c-97 -40 -112 -38 -104 13 5 39 188 132 266 136 13 1 18 -124 16 -344z m-536 -857 c14 -63 50 -61 50 4 0 36 50 75 70 55 15 -15 -79 -236 -100 -236 -23 0 -112 219 -98 242 19 31 66 -8 78 -65z m210 -58 c0 -93 -7 -120 -30 -120 -23 0 -30 27 -30 120 0 93 7 120 30 120 23 0 30 -27 30 -120z m240 91 c0 -19 -26 -31 -75 -35 -65 -5 -75 -13 -75 -56 0 -59 66 -81 94 -32 28 51 59 37 52 -23 -12 -110 -216 -63 -216 51 0 73 58 124 141 124 55 0 79 -9 79 -29z m252 -21 c42 -65 22 -144 -43 -174 -117 -53 -229 69 -160 175 45 69 157 69 203 -1z m222 17 c7 -18 2 -49 -11 -70 -17 -27 -18 -49 -3 -76 26 -50 25 -61 -7 -61 -15 0 -39 25 -54 55 l-27 55 -8 -56 c-12 -96 -49 -48 -48 62 1 57 2 109 3 114 3 28 143 7 155 -23z m-70 -358 c24 -89 0 -132 -36 -64 -77 146 -148 40 -148 -222 0 -197 30 -273 88 -225 43 36 45 218 2 235 -58 22 -29 47 56 47 l86 0 -7 -135 c-4 -74 -9 -147 -11 -163 -3 -18 -40 -30 -108 -36 -166 -13 -186 19 -186 302 0 252 5 263 138 305 95 30 107 25 126 -44z m-704 13 c0 -10 -10 -22 -23 -26 -16 -6 -16 -54 4 -183 14 -96 32 -167 39 -159 28 33 82 335 61 342 -67 23 1 44 139 44 93 0 160 -8 160 -20 0 -11 -9 -20 -20 -20 -12 0 -20 -96 -20 -249 0 -144 8 -254 20 -261 45 -28 15 -50 -69 -50 -90 0 -139 31 -82 52 57 22 45 513 -13 504 -39 -5 -50 -35 -102 -266 -78 -345 -70 -323 -101 -289 -14 16 -50 142 -80 279 -30 140 -67 260 -84 272 -49 37 -33 48 71 48 55 0 100 -8 100 -18z"/> <path d="M8411 2029 c-17 -18 -31 -38 -31 -45 2 -75 126 -84 136 -10 9 61 -61 98 -105 55z"/> <path d="M3450 3740 c5 -8 -87 -19 -205 -26 -170 -10 -224 -20 -268 -53 -30 -23 -70 -41 -88 -41 -198 0 -789 -620 -789 -828 0 -16 -9 -35 -20 -42 -11 -7 -20 -29 -20 -49 0 -20 -12 -60 -27 -89 -27 -52 -31 -300 -6 -326 7 -7 13 -40 13 -74 -1 -48 -5 -55 -20 -32 -30 46 -24 17 29 -142 87 -263 125 -362 154 -396 15 -18 39 -56 54 -85 15 -28 67 -93 115 -144 48 -50 88 -105 88 -122 0 -17 17 -31 39 -31 21 0 45 -10 52 -21 7 -12 53 -46 103 -77 49 -31 100 -77 113 -103 18 -36 42 -48 108 -53 47 -3 115 -18 153 -34 121 -50 661 -84 721 -45 23 15 91 38 151 53 61 14 119 32 130 40 11 8 54 26 95 39 41 13 75 36 75 50 0 15 30 41 67 58 243 115 604 663 589 893 -5 79 4 111 24 80 30 -46 24 53 -18 340 -21 138 -33 257 -28 265 5 9 -1 14 -14 10 -19 -4 -72 103 -87 182 -3 14 -15 32 -26 40 -26 16 -77 108 -72 127 3 8 -54 71 -126 140 -71 69 -126 135 -121 148 14 36 -13 58 -104 87 -47 16 -114 49 -149 74 -34 26 -77 47 -94 47 -17 0 -56 13 -87 30 -31 16 -117 41 -192 57 -74 15 -152 37 -173 48 -44 23 -153 27 -139 5z m281 -269 c246 -66 389 -132 495 -229 48 -45 92 -79 96 -77 4 3 6 2 4 -3 -5 -8 135 -185 162 -205 10 -7 12 -27 6 -45 -7 -18 -4 -32 6 -32 100 0 187 -519 139 -820 -51 -311 -467 -833 -507 -635 -16 76 -29 206 -19 180 6 -14 20 -25 31 -25 11 0 17 11 12 25 -4 14 18 49 48 79 31 29 56 47 57 40 0 -8 9 2 21 21 11 19 37 35 57 35 66 0 111 132 83 239 -27 102 -192 281 -258 281 -21 0 -73 27 -115 60 -85 68 -114 77 -267 85 -97 4 -109 10 -112 50 -2 25 4 45 13 45 29 0 21 677 -8 713 -99 126 -165 170 -240 161 -91 -12 -227 -81 -220 -112 3 -12 -5 -22 -16 -22 -33 0 -139 -125 -139 -164 0 -19 29 -67 64 -107 59 -68 65 -86 76 -261 7 -104 23 -199 36 -212 67 -67 30 -92 -153 -99 -153 -6 -185 -14 -245 -59 -37 -29 -88 -59 -112 -66 -66 -21 -172 -127 -154 -155 9 -14 6 -18 -8 -9 -36 22 -89 -103 -75 -178 12 -66 106 -208 139 -209 59 -3 112 -341 54 -341 -83 0 -290 278 -374 500 -160 424 -77 873 220 1193 245 264 543 391 942 404 44 2 162 -19 261 -46z m-211 -581 l0 -350 -50 0 -50 0 0 290 c0 160 -7 290 -15 289 -8 0 -37 -13 -65 -29 -72 -41 -100 -37 -100 15 0 43 153 122 255 132 19 2 25 -79 25 -347z m471 -629 c-17 -27 -1084 -28 -1101 -1 -8 13 172 20 550 20 348 0 558 -7 551 -19z m-1159 -191 c13 -54 -19 -110 -64 -110 -16 0 -28 -19 -28 -41 0 -29 -11 -40 -34 -35 -29 5 -46 150 -27 231 8 36 142 -3 153 -45z m185 16 c12 -21 11 -50 -3 -80 -15 -34 -15 -53 3 -71 32 -32 29 -55 -6 -55 -17 0 -43 25 -60 55 l-29 55 -1 -55 c-1 -35 -12 -55 -31 -55 -23 0 -30 27 -30 120 l0 120 69 0 c44 0 76 -12 88 -34z m198 9 c-4 -14 -28 -28 -52 -31 -54 -8 -57 -44 -3 -44 22 0 40 -9 40 -20 0 -11 -19 -20 -42 -20 -54 0 -39 -48 19 -56 74 -11 47 -44 -37 -44 l-80 0 0 120 0 120 82 0 c56 0 79 -8 73 -25z m180 -10 c5 -16 -12 -25 -48 -25 l-57 0 60 -49 c50 -40 56 -54 38 -85 -26 -41 -130 -50 -143 -11 -5 16 12 25 48 26 l57 0 -55 41 c-60 45 -68 77 -30 115 30 30 119 22 130 -12z m185 6 c0 -16 -25 -32 -55 -37 -53 -8 -53 -9 -10 -24 57 -19 59 -50 3 -50 -60 0 -36 -49 29 -56 83 -10 62 -44 -27 -44 l-80 0 0 120 0 120 70 0 c47 0 70 -9 70 -29z m154 -46 l44 -75 1 75 c1 51 10 75 29 75 34 0 31 -224 -4 -235 -11 -4 -44 27 -72 68 l-52 76 0 -74 c0 -53 -9 -75 -30 -75 -23 0 -30 27 -30 120 0 146 44 163 114 45z m326 45 c0 -20 -20 -30 -59 -30 -74 0 -106 -72 -50 -113 87 -64 134 -30 179 128 22 76 65 50 109 -66 22 -61 41 -115 41 -120 0 -23 -57 -6 -67 21 -7 17 -25 30 -40 30 -16 0 -34 -13 -40 -30 -7 -16 -33 -30 -60 -30 -32 0 -52 -14 -59 -40 -6 -22 -26 -40 -44 -40 -22 0 -30 11 -23 30 7 17 -10 52 -40 81 -85 86 -28 209 97 209 36 0 56 -10 56 -30z m-51 -382 c18 -95 -3 -111 -52 -43 -74 101 -137 76 -137 -55 0 -115 23 -139 72 -75 24 31 27 24 27 -53 1 -84 -1 -87 -36 -55 -56 51 -63 42 -63 -88 0 -131 19 -154 109 -131 29 7 51 29 55 55 13 90 56 64 56 -34 0 -87 -3 -93 -45 -82 -25 7 -124 13 -220 13 -201 0 -255 31 -255 143 0 35 -15 80 -33 101 -32 34 -32 38 1 62 56 41 38 242 -23 250 -45 7 -45 5 -45 -255 0 -161 8 -261 20 -261 11 0 20 -9 20 -20 0 -11 -45 -20 -100 -20 -97 0 -132 24 -70 47 36 14 46 513 10 513 -11 0 -20 10 -20 22 0 41 280 13 312 -32 38 -52 36 -189 -5 -233 -25 -28 -27 -42 -9 -64 13 -16 30 -68 38 -116 12 -69 24 -88 59 -93 43 -7 45 -1 47 160 3 253 -3 345 -24 353 -55 20 -1 42 117 48 74 4 145 9 158 11 12 2 29 -28 36 -68z m-815 22 c102 -71 69 -330 -45 -358 -76 -20 -112 20 -42 47 92 35 75 301 -19 301 l-48 0 0 -251 c0 -204 6 -252 30 -262 62 -23 27 -47 -70 -47 -93 0 -127 21 -80 50 12 7 20 117 20 261 0 153 -8 249 -20 249 -11 0 -20 9 -20 20 0 33 245 24 294 -10z"/> <path d="M4895 3588 c-25 -25 7 -48 68 -48 39 0 57 9 52 25 -9 28 -99 45 -120 23z"/> <path d="M6768 3571 c-15 -37 6 -71 43 -71 31 0 36 19 17 68 -15 40 -46 41 -60 3z"/> <path d="M4660 3459 c0 -49 -8 -76 -20 -69 -38 23 -20 -13 47 -97 56 -70 165 -241 243 -381 43 -76 682 -246 850 -226 l70 8 6 150 6 150 -183 14 c-101 8 -202 26 -226 41 -24 14 -83 32 -132 40 -87 13 -301 76 -342 102 -14 8 -13 22 3 41 34 41 12 53 -47 26 -44 -19 -65 -15 -150 33 l-98 55 41 77 c37 68 38 80 12 97 -59 38 -80 22 -80 -61z"/> <path d="M5210 3520 c-14 -23 23 -80 52 -80 28 0 21 53 -10 79 -20 16 -32 17 -42 1z"/> <path d="M5971 3409 c-36 -37 -38 -58 -10 -110 43 -80 99 -16 99 114 0 37 -50 34 -89 -4z"/> <path d="M6460 3268 c0 -21 11 -28 32 -20 17 7 40 12 51 12 11 0 14 9 7 20 -20 33 -90 23 -90 -12z"/> <path d="M5571 3264 c-22 -21 15 -44 70 -44 50 0 89 37 44 42 -8 1 -35 4 -60 6 -25 3 -49 1 -54 -4z"/> <path d="M6847 3179 c-122 -57 -405 -128 -670 -169 l-233 -37 2 -136 2 -137 121 -3 c67 -2 135 -1 151 3 17 3 72 7 124 9 52 2 101 9 109 17 7 8 32 14 55 14 23 0 69 14 102 32 33 17 82 33 108 35 26 2 55 17 64 33 9 17 44 89 79 160 34 72 75 144 91 162 61 68 21 74 -105 17z"/> <path d="M5949 3139 c-7 -12 -9 -26 -3 -31 15 -16 114 14 114 34 0 25 -95 22 -111 -3z"/> <path d="M4967 2691 c-6 -17 2 -43 18 -59 16 -16 36 -84 43 -151 14 -117 16 -121 72 -121 32 0 62 -8 68 -17 6 -10 50 -23 97 -30 190 -27 226 -34 255 -46 17 -8 100 -14 186 -15 l156 -2 -9 65 c-5 36 -3 65 4 65 7 0 10 41 6 90 l-7 90 -127 0 c-70 0 -132 9 -139 20 -7 11 -52 20 -100 20 -92 0 -291 43 -415 91 -93 36 -94 36 -108 0z"/> <path d="M6580 2636 c-71 -21 -242 -50 -380 -63 -175 -16 -249 -31 -248 -48 1 -14 3 -78 5 -143 l3 -119 145 -7 c80 -3 185 5 234 19 60 17 95 19 109 5 13 -13 11 -20 -8 -20 -20 0 -22 -6 -6 -22 15 -15 33 -11 64 15 23 20 72 42 107 47 61 9 65 15 69 100 2 50 18 129 35 178 17 48 31 90 31 95 0 10 -16 7 -160 -37z"/> <path d="M5035 2229 c-30 -31 12 -49 111 -48 69 0 94 6 74 18 -44 26 -169 46 -185 30z"/> <path d="M7220 10710 c-15 -27 -39 -50 -53 -50 -15 0 -27 -9 -27 -20 0 -37 52 -21 100 30 32 34 41 57 27 71 -13 13 -29 3 -47 -31z"/> <path d="M7691 8824 c-24 -24 -8 -42 61 -65 59 -19 76 -19 89 3 18 29 7 58 -23 58 -11 0 -15 -8 -9 -19 6 -10 3 -24 -9 -31 -11 -7 -20 1 -20 16 0 30 -68 59 -89 38z"/> <path d="M9085 8487 c-14 -6 -25 -19 -25 -30 0 -28 85 -12 95 18 8 25 -24 30 -70 12z"/> <path d="M11261 7507 c-1 -23 14 -48 32 -55 50 -19 52 -3 8 50 -39 47 -40 47 -40 5z"/> <path d="M11340 5925 c0 -9 18 -27 40 -40 35 -22 40 -20 40 15 0 27 -13 40 -40 40 -22 0 -40 -7 -40 -15z"/> <path d="M1450 4899 c-8 -23 -9 -47 -3 -53 17 -16 53 14 53 44 0 47 -36 53 -50 9z"/> <path d="M9515 3766 c-39 -10 -46 -37 -15 -56 11 -7 20 -1 20 14 1 14 20 4 42 -24 30 -36 38 -40 30 -13 -7 20 -12 49 -12 65 0 29 -5 30 -65 14z"/> <path d="M1833 3310 c6 -16 28 -30 49 -30 21 0 38 14 38 30 0 19 -19 30 -49 30 -36 0 -47 -8 -38 -30z"/> <path d="M6802 1085 c-2 -56 5 -65 48 -65 34 0 50 11 50 34 0 26 -5 29 -24 10 -19 -19 -29 -12 -48 31 l-25 55 -1 -65z"/> <path d="M2129 959 c0 -50 57 -44 67 6 5 23 -6 35 -30 35 -24 0 -37 -14 -37 -41z"/> <path d="M4500 782 c0 -9 13 -28 28 -41 32 -26 64 4 42 39 -15 25 -70 27 -70 2z"/> <path d="M2586 613 c-9 -15 -29 -32 -46 -38 -21 -9 -18 -12 11 -13 41 -2 89 32 89 62 0 26 -37 18 -54 -11z"/> </g> </svg>