<?xml version="1.0" encoding="UTF-8" standalone="no"?>
<!-- Created with Inkscape (http://www.inkscape.org/) -->

<svg
   width="93.397911mm"
   height="101.58886mm"
   viewBox="0 0 93.397911 101.58886"
   version="1.1"
   id="svg1"
   xml:space="preserve"
   xmlns="http://www.w3.org/2000/svg"
   xmlns:svg="http://www.w3.org/2000/svg"><defs
     id="defs1" /><g
     id="layer1"
     transform="translate(-58.340628,-97.63682)"><path
       style="fill:currentColor;fill-opacity:0"
       d="m 81.888544,186.50858 c -12.22375,-6.98826 -22.522656,-12.9986 -22.886458,-13.35631 l -0.661458,-0.65039 v -24.06506 -24.06505 l 0.661458,-0.65045 c 0.363802,-0.35774 10.683304,-6.3731 22.932226,-13.36747 16.43431,-9.3843 22.489458,-12.71703 23.105268,-12.71703 0.61581,0 6.67096,3.33273 23.10528,12.71703 12.24892,6.99437 22.56842,13.00973 22.93222,13.36747 l 0.66146,0.65045 v 24.06505 24.06506 l -0.66146,0.65044 c -0.3638,0.35775 -10.6833,6.37311 -22.93222,13.36747 -17.385,9.92716 -22.46389,12.71458 -23.15105,12.70587 -0.66511,-0.008 -6.312558,-3.11678 -23.105266,-12.71708 z"
       id="path115" /><path
       style="fill:currentColor;fill-opacity:1"
       d="m 144.08641,124.82402 c 0.0568,-0.0568 -6.93052,-4.12245 -15.52736,-9.03479 -8.59684,-4.91234 -15.66844,-8.89287 -15.71466,-8.84562 -0.0462,0.0473 3.6061,5.45219 8.11626,12.01097 l 8.2003,11.92504 7.4111,-2.97617 c 4.07611,-1.6369 7.45758,-3.02264 7.51436,-3.07943 z"
       id="path114" /><path
       style="fill:currentColor;fill-opacity:1"
       d="m 83.488155,127.13245 c 1.448547,-2.11303 4.006845,-5.83374 5.685107,-8.26823 6.58578,-9.55337 8.21203,-11.96698 8.06312,-11.96698 -0.28931,0 -31.347495,17.82291 -31.242008,17.9284 0.05768,0.0577 3.419339,1.45078 7.470354,3.09579 4.051016,1.645 7.370932,3.00486 7.377593,3.0219 0.0067,0.0171 1.197286,-1.69785 2.645834,-3.81088 z"
       id="path113" /><path
       style="fill:currentColor;fill-opacity:1"
       d="m 123.66284,130.90818 c -0.77713,-1.32907 -18.48099,-26.92136 -18.62326,-26.92136 -0.14227,0 -17.846124,25.59229 -18.623257,26.92136 -0.153955,0.26329 3.643196,0.33073 18.623257,0.33073 14.98007,0 18.77722,-0.0674 18.62326,-0.33073 z"
       id="path112" /><path
       style="fill:currentColor;fill-opacity:1"
       d="m 147.02302,128.68415 c -0.0491,-0.0491 -3.56298,1.29773 -7.80865,2.99294 l -7.71939,3.08219 0.62408,1.08408 c 0.34324,0.59625 3.82648,6.85857 7.74053,13.91628 l 7.11645,12.83219 0.0681,-16.90921 c 0.0375,-9.30007 0.028,-16.94938 -0.0211,-16.99847 z"
       id="path111" /><path
       style="fill:currentColor;fill-opacity:1"
       d="m 65.762226,157.82953 c 1.279009,-2.32833 3.118434,-5.66208 4.087611,-7.40833 3.023684,-5.44804 5.971855,-10.7512 7.354447,-13.22917 0.730746,-1.30969 1.304752,-2.40608 1.275569,-2.43643 -0.07037,-0.0732 -15.308735,-6.16253 -15.421511,-6.16253 -0.04813,0 -0.08751,7.64381 -0.08751,16.98625 0,9.80085 0.09855,16.87993 0.23296,16.7349 0.128127,-0.13825 1.279421,-2.15636 2.55843,-4.48469 z"
       id="path110" /><path
       style="fill:currentColor;fill-opacity:1"
       d="m 105.50033,170.40847 c 0.30794,-0.49308 4.11688,-7.41729 13.76015,-25.01436 2.39239,-4.36562 4.58641,-8.32445 4.87561,-8.79739 l 0.52582,-0.8599 H 105.03958 85.41726 l 0.525819,0.8599 c 0.2892,0.47294 2.483223,4.43177 4.875607,8.79739 14.303244,26.10059 13.986714,25.53229 14.220894,25.53229 0.0755,0 0.28285,-0.23307 0.46075,-0.51793 z"
       id="path109" /><path
       style="fill:currentColor;fill-opacity:1"
       d="m 112.31562,173.03338 c 1.45521,-0.14334 4.55084,-0.44158 6.87917,-0.66277 2.32833,-0.22118 6.0788,-0.58084 8.33438,-0.79925 2.25557,-0.2184 5.82744,-0.56316 7.93749,-0.76614 8.15771,-0.78472 10.19,-1.00025 10.28845,-1.0911 0.0561,-0.0518 -0.0923,-0.3906 -0.32972,-0.75298 -0.23743,-0.36237 -1.40493,-2.41991 -2.59443,-4.57231 -2.30457,-4.17011 -4.34004,-7.84058 -7.89253,-14.23222 -1.21321,-2.18281 -3.12204,-5.63014 -4.24185,-7.66074 -1.11981,-2.03059 -2.15764,-3.73253 -2.30629,-3.78208 -0.14865,-0.0495 -1.13265,1.49279 -2.18667,3.42741 -2.10079,3.85595 -9.16845,16.71062 -14.04445,25.54406 -1.70693,3.09232 -2.96534,5.61932 -2.79645,5.61557 0.16889,-0.004 1.4977,-0.12411 2.9529,-0.26745 z"
       id="path108" /><path
       style="fill:currentColor;fill-opacity:1"
       d="m 99.166942,169.93422 c -5.199523,-9.43651 -11.228887,-20.40507 -14.110875,-25.67036 -2.393441,-4.37274 -3.296177,-5.80596 -3.499694,-5.55625 -0.150845,0.18508 -1.259418,2.12244 -2.463496,4.30525 -2.24539,4.07056 -4.056283,7.33774 -7.919085,14.2875 -1.213247,2.18282 -3.075299,5.54489 -4.137894,7.47127 -1.062594,1.92639 -2.130403,3.80534 -2.372908,4.17545 -0.242504,0.37011 -0.395024,0.71514 -0.338931,0.76674 0.102848,0.0946 2.657171,0.36357 10.420735,1.09727 9.778724,0.92414 20.159108,1.92086 23.018748,2.21025 1.16417,0.11782 2.374408,0.23043 2.689418,0.25026 0.51323,0.0323 0.3796,-0.31448 -1.286018,-3.33738 z"
       id="path107" /><path
       style="fill:currentColor;fill-opacity:1"
       d="m 123.65627,183.87531 c 8.27464,-4.72081 14.84671,-8.62296 14.6046,-8.67145 -0.48732,-0.0976 -1.5462,-0.004 -19.33066,1.70126 -2.32834,0.22331 -5.84068,0.5476 -7.80521,0.72064 l -3.57188,0.31463 -0.0703,7.63863 -0.0703,7.63863 0.59942,-0.37953 c 0.32969,-0.20875 7.36959,-4.24201 15.64424,-8.96281 z"
       id="path106" /><path
       style="fill:currentColor;fill-opacity:1"
       d="m 102.65833,185.53175 v -7.61966 l -3.638018,-0.31716 c -4.11469,-0.35872 -11.112615,-1.0049 -13.29531,-1.22767 -1.690366,-0.17253 -8.84426,-0.85577 -12.303124,-1.17504 -1.309688,-0.12089 -2.405716,-0.20279 -2.435618,-0.18201 -0.04747,0.033 31.43355,18.08771 31.60593,18.12636 0.0364,0.008 0.0661,-3.41401 0.0661,-7.60482 z"
       id="path1" /></g></svg>
